<svg xmlns="http://www.w3.org/2000/svg" xmlns:xlink="http://www.w3.org/1999/xlink" width="500" zoomAndPan="magnify" viewBox="0 0 375 374.999991" height="500" preserveAspectRatio="xMidYMid meet" version="1.0"><defs><g/><clipPath id="01a995c78b"><path d="M 143.050781 115.773438 L 163 115.773438 L 163 135 L 143.050781 135 Z M 143.050781 115.773438 " clip-rule="nonzero"/></clipPath><clipPath id="5b8d88becc"><path d="M 143.050781 185 L 163 185 L 163 205.023438 L 143.050781 205.023438 Z M 143.050781 185 " clip-rule="nonzero"/></clipPath><clipPath id="6acd122982"><path d="M 213 115.773438 L 232.300781 115.773438 L 232.300781 135 L 213 135 Z M 213 115.773438 " clip-rule="nonzero"/></clipPath><clipPath id="c57a2c3856"><path d="M 213 185 L 232.300781 185 L 232.300781 205.023438 L 213 205.023438 Z M 213 185 " clip-rule="nonzero"/></clipPath></defs><g clip-path="url(#01a995c78b)"><path fill="#ffffff" d="M 146.238281 134.898438 C 146.660156 134.898438 147.066406 134.820312 147.457031 134.65625 C 147.847656 134.496094 148.191406 134.265625 148.492188 133.964844 C 148.789062 133.667969 149.019531 133.324219 149.183594 132.933594 C 149.34375 132.542969 149.425781 132.136719 149.425781 131.710938 L 149.425781 129.769531 C 149.425781 129.269531 149.476562 128.773438 149.574219 128.28125 C 149.671875 127.792969 149.816406 127.316406 150.007812 126.855469 C 150.199219 126.394531 150.433594 125.953125 150.714844 125.539062 C 150.992188 125.125 151.308594 124.738281 151.660156 124.386719 C 152.015625 124.03125 152.398438 123.714844 152.8125 123.4375 C 153.230469 123.160156 153.667969 122.925781 154.128906 122.734375 C 154.589844 122.542969 155.066406 122.398438 155.558594 122.296875 C 156.046875 122.199219 156.542969 122.152344 157.042969 122.148438 L 158.988281 122.148438 C 159.410156 122.148438 159.816406 122.070312 160.207031 121.90625 C 160.597656 121.746094 160.941406 121.515625 161.242188 121.214844 C 161.539062 120.917969 161.769531 120.574219 161.933594 120.183594 C 162.09375 119.792969 162.175781 119.386719 162.175781 118.960938 C 162.175781 118.539062 162.09375 118.132812 161.933594 117.742188 C 161.769531 117.351562 161.539062 117.007812 161.242188 116.707031 C 160.941406 116.410156 160.597656 116.179688 160.207031 116.015625 C 159.816406 115.855469 159.410156 115.773438 158.988281 115.773438 L 157.042969 115.773438 C 156.125 115.777344 155.214844 115.867188 154.3125 116.046875 C 153.414062 116.226562 152.539062 116.492188 151.691406 116.84375 C 150.84375 117.195312 150.035156 117.628906 149.273438 118.136719 C 148.507812 118.648438 147.800781 119.226562 147.152344 119.878906 C 146.503906 120.527344 145.921875 121.234375 145.414062 121.996094 C 144.902344 122.761719 144.472656 123.566406 144.117188 124.414062 C 143.765625 125.265625 143.5 126.136719 143.320312 127.039062 C 143.140625 127.941406 143.050781 128.847656 143.050781 129.769531 L 143.050781 131.710938 C 143.050781 132.136719 143.128906 132.542969 143.292969 132.933594 C 143.453125 133.324219 143.683594 133.667969 143.984375 133.964844 C 144.28125 134.265625 144.625 134.496094 145.015625 134.65625 C 145.40625 134.820312 145.816406 134.898438 146.238281 134.898438 Z M 146.238281 134.898438 " fill-opacity="1" fill-rule="nonzero"/></g><g clip-path="url(#5b8d88becc)"><path fill="#ffffff" d="M 157.042969 205.023438 L 158.988281 205.023438 C 159.410156 205.023438 159.816406 204.945312 160.207031 204.78125 C 160.597656 204.621094 160.941406 204.390625 161.242188 204.089844 C 161.539062 203.792969 161.769531 203.449219 161.933594 203.058594 C 162.09375 202.667969 162.175781 202.261719 162.175781 201.835938 C 162.175781 201.414062 162.09375 201.007812 161.933594 200.617188 C 161.769531 200.226562 161.539062 199.882812 161.242188 199.582031 C 160.941406 199.285156 160.597656 199.054688 160.207031 198.890625 C 159.816406 198.730469 159.410156 198.648438 158.988281 198.648438 L 157.042969 198.648438 C 156.542969 198.648438 156.046875 198.597656 155.558594 198.5 C 155.066406 198.402344 154.589844 198.257812 154.128906 198.066406 C 153.667969 197.875 153.230469 197.640625 152.8125 197.359375 C 152.398438 197.082031 152.015625 196.765625 151.660156 196.414062 C 151.308594 196.058594 150.992188 195.675781 150.714844 195.261719 C 150.433594 194.84375 150.199219 194.40625 150.007812 193.945312 C 149.816406 193.484375 149.671875 193.007812 149.574219 192.515625 C 149.476562 192.027344 149.425781 191.53125 149.425781 191.03125 L 149.425781 189.085938 C 149.425781 188.664062 149.34375 188.257812 149.183594 187.867188 C 149.019531 187.476562 148.789062 187.132812 148.492188 186.832031 C 148.191406 186.535156 147.847656 186.304688 147.457031 186.140625 C 147.066406 185.980469 146.660156 185.898438 146.238281 185.898438 C 145.816406 185.898438 145.40625 185.980469 145.015625 186.140625 C 144.625 186.304688 144.28125 186.535156 143.984375 186.832031 C 143.683594 187.132812 143.453125 187.476562 143.292969 187.867188 C 143.128906 188.257812 143.050781 188.664062 143.050781 189.085938 L 143.050781 191.03125 C 143.050781 191.949219 143.140625 192.859375 143.320312 193.761719 C 143.5 194.660156 143.765625 195.535156 144.117188 196.382812 C 144.472656 197.230469 144.902344 198.039062 145.414062 198.800781 C 145.921875 199.566406 146.503906 200.273438 147.152344 200.921875 C 147.800781 201.570312 148.507812 202.152344 149.273438 202.660156 C 150.035156 203.171875 150.84375 203.601562 151.691406 203.957031 C 152.539062 204.308594 153.414062 204.574219 154.3125 204.753906 C 155.214844 204.933594 156.125 205.023438 157.042969 205.023438 Z M 157.042969 205.023438 " fill-opacity="1" fill-rule="nonzero"/></g><g clip-path="url(#6acd122982)"><path fill="#ffffff" d="M 218.304688 115.773438 L 216.363281 115.773438 C 215.941406 115.773438 215.53125 115.855469 215.140625 116.015625 C 214.75 116.179688 214.40625 116.410156 214.109375 116.707031 C 213.808594 117.007812 213.578125 117.351562 213.417969 117.742188 C 213.253906 118.132812 213.175781 118.539062 213.175781 118.960938 C 213.175781 119.386719 213.253906 119.792969 213.417969 120.183594 C 213.578125 120.574219 213.808594 120.917969 214.109375 121.214844 C 214.40625 121.515625 214.75 121.746094 215.140625 121.90625 C 215.53125 122.070312 215.941406 122.148438 216.363281 122.148438 L 218.304688 122.148438 C 218.804688 122.152344 219.300781 122.199219 219.792969 122.296875 C 220.28125 122.398438 220.757812 122.542969 221.21875 122.734375 C 221.679688 122.925781 222.121094 123.160156 222.535156 123.4375 C 222.949219 123.714844 223.335938 124.03125 223.6875 124.386719 C 224.042969 124.738281 224.359375 125.125 224.636719 125.539062 C 224.914062 125.953125 225.148438 126.394531 225.339844 126.855469 C 225.53125 127.316406 225.675781 127.792969 225.777344 128.28125 C 225.875 128.773438 225.921875 129.269531 225.925781 129.769531 L 225.925781 131.710938 C 225.925781 132.136719 226.003906 132.542969 226.167969 132.933594 C 226.328125 133.324219 226.558594 133.667969 226.859375 133.964844 C 227.15625 134.265625 227.5 134.496094 227.890625 134.65625 C 228.28125 134.820312 228.691406 134.898438 229.113281 134.898438 C 229.535156 134.898438 229.941406 134.820312 230.332031 134.65625 C 230.722656 134.496094 231.066406 134.265625 231.367188 133.964844 C 231.664062 133.667969 231.894531 133.324219 232.058594 132.933594 C 232.21875 132.542969 232.300781 132.136719 232.300781 131.710938 L 232.300781 129.769531 C 232.296875 128.847656 232.207031 127.941406 232.027344 127.039062 C 231.847656 126.136719 231.582031 125.265625 231.230469 124.414062 C 230.878906 123.566406 230.445312 122.761719 229.9375 121.996094 C 229.425781 121.234375 228.847656 120.527344 228.195312 119.878906 C 227.546875 119.226562 226.839844 118.648438 226.078125 118.136719 C 225.3125 117.628906 224.507812 117.195312 223.660156 116.84375 C 222.8125 116.492188 221.9375 116.226562 221.035156 116.046875 C 220.132812 115.867188 219.226562 115.777344 218.304688 115.773438 Z M 218.304688 115.773438 " fill-opacity="1" fill-rule="nonzero"/></g><g clip-path="url(#c57a2c3856)"><path fill="#ffffff" d="M 229.113281 185.898438 C 228.691406 185.898438 228.28125 185.980469 227.890625 186.140625 C 227.5 186.304688 227.15625 186.535156 226.859375 186.832031 C 226.558594 187.132812 226.328125 187.476562 226.167969 187.867188 C 226.003906 188.257812 225.925781 188.664062 225.925781 189.085938 L 225.925781 191.03125 C 225.921875 191.53125 225.875 192.027344 225.777344 192.515625 C 225.675781 193.007812 225.53125 193.484375 225.339844 193.945312 C 225.148438 194.40625 224.914062 194.84375 224.636719 195.261719 C 224.359375 195.675781 224.042969 196.058594 223.6875 196.414062 C 223.335938 196.765625 222.949219 197.082031 222.535156 197.359375 C 222.121094 197.640625 221.679688 197.875 221.21875 198.066406 C 220.757812 198.257812 220.28125 198.402344 219.792969 198.5 C 219.300781 198.597656 218.804688 198.648438 218.304688 198.648438 L 216.363281 198.648438 C 215.941406 198.648438 215.53125 198.730469 215.140625 198.890625 C 214.75 199.054688 214.40625 199.285156 214.109375 199.582031 C 213.808594 199.882812 213.578125 200.226562 213.417969 200.617188 C 213.253906 201.007812 213.175781 201.414062 213.175781 201.835938 C 213.175781 202.261719 213.253906 202.667969 213.417969 203.058594 C 213.578125 203.449219 213.808594 203.792969 214.109375 204.089844 C 214.40625 204.390625 214.75 204.621094 215.140625 204.78125 C 215.53125 204.945312 215.941406 205.023438 216.363281 205.023438 L 218.304688 205.023438 C 219.226562 205.023438 220.132812 204.933594 221.035156 204.753906 C 221.9375 204.574219 222.8125 204.308594 223.660156 203.957031 C 224.507812 203.601562 225.3125 203.171875 226.078125 202.660156 C 226.839844 202.152344 227.546875 201.570312 228.195312 200.921875 C 228.847656 200.273438 229.425781 199.566406 229.9375 198.800781 C 230.445312 198.039062 230.878906 197.230469 231.230469 196.382812 C 231.582031 195.535156 231.847656 194.660156 232.027344 193.761719 C 232.207031 192.859375 232.296875 191.949219 232.300781 191.03125 L 232.300781 189.085938 C 232.300781 188.664062 232.21875 188.257812 232.058594 187.867188 C 231.894531 187.476562 231.664062 187.132812 231.367188 186.832031 C 231.066406 186.535156 230.722656 186.304688 230.332031 186.140625 C 229.941406 185.980469 229.535156 185.898438 229.113281 185.898438 Z M 229.113281 185.898438 " fill-opacity="1" fill-rule="nonzero"/></g><path fill="#ffffff" d="M 184.996094 128.523438 L 190.351562 128.523438 C 190.84375 128.523438 191.3125 128.617188 191.765625 128.804688 C 192.21875 128.992188 192.621094 129.261719 192.964844 129.609375 C 193.3125 129.953125 193.582031 130.355469 193.769531 130.808594 C 193.957031 131.261719 194.050781 131.730469 194.050781 132.222656 L 194.050781 137.578125 C 194.050781 138.066406 193.957031 138.539062 193.769531 138.992188 C 193.582031 139.445312 193.3125 139.84375 192.964844 140.191406 C 192.621094 140.539062 192.21875 140.804688 191.765625 140.992188 C 191.3125 141.179688 190.84375 141.273438 190.351562 141.273438 L 184.996094 141.273438 C 184.507812 141.273438 184.035156 141.179688 183.582031 140.992188 C 183.128906 140.804688 182.730469 140.539062 182.382812 140.191406 C 182.035156 139.84375 181.769531 139.445312 181.582031 138.992188 C 181.394531 138.539062 181.300781 138.066406 181.300781 137.578125 L 181.300781 132.222656 C 181.300781 131.730469 181.394531 131.261719 181.582031 130.808594 C 181.769531 130.355469 182.035156 129.953125 182.382812 129.609375 C 182.730469 129.261719 183.128906 128.992188 183.582031 128.804688 C 184.035156 128.617188 184.507812 128.523438 184.996094 128.523438 Z M 184.996094 128.523438 " fill-opacity="1" fill-rule="nonzero"/><path fill="#ffffff" d="M 184.996094 154.023438 L 190.351562 154.023438 C 190.84375 154.023438 191.3125 154.117188 191.765625 154.304688 C 192.21875 154.492188 192.621094 154.761719 192.964844 155.109375 C 193.3125 155.453125 193.582031 155.855469 193.769531 156.308594 C 193.957031 156.761719 194.050781 157.230469 194.050781 157.722656 L 194.050781 163.078125 C 194.050781 163.566406 193.957031 164.039062 193.769531 164.492188 C 193.582031 164.945312 193.3125 165.34375 192.964844 165.691406 C 192.621094 166.039062 192.21875 166.304688 191.765625 166.492188 C 191.3125 166.679688 190.84375 166.773438 190.351562 166.773438 L 184.996094 166.773438 C 184.507812 166.773438 184.035156 166.679688 183.582031 166.492188 C 183.128906 166.304688 182.730469 166.039062 182.382812 165.691406 C 182.035156 165.34375 181.769531 164.945312 181.582031 164.492188 C 181.394531 164.039062 181.300781 163.566406 181.300781 163.078125 L 181.300781 157.722656 C 181.300781 157.230469 181.394531 156.761719 181.582031 156.308594 C 181.769531 155.855469 182.035156 155.453125 182.382812 155.109375 C 182.730469 154.761719 183.128906 154.492188 183.582031 154.304688 C 184.035156 154.117188 184.507812 154.023438 184.996094 154.023438 Z M 184.996094 154.023438 " fill-opacity="1" fill-rule="nonzero"/><path fill="#ffffff" d="M 159.496094 154.023438 L 164.851562 154.023438 C 165.34375 154.023438 165.8125 154.117188 166.265625 154.304688 C 166.71875 154.492188 167.121094 154.761719 167.464844 155.109375 C 167.8125 155.453125 168.082031 155.855469 168.269531 156.308594 C 168.457031 156.761719 168.550781 157.230469 168.550781 157.722656 L 168.550781 163.078125 C 168.550781 163.566406 168.457031 164.039062 168.269531 164.492188 C 168.082031 164.945312 167.8125 165.34375 167.464844 165.691406 C 167.121094 166.039062 166.71875 166.304688 166.265625 166.492188 C 165.8125 166.679688 165.34375 166.773438 164.851562 166.773438 L 159.496094 166.773438 C 159.007812 166.773438 158.535156 166.679688 158.082031 166.492188 C 157.628906 166.304688 157.230469 166.039062 156.882812 165.691406 C 156.535156 165.34375 156.269531 164.945312 156.082031 164.492188 C 155.894531 164.039062 155.800781 163.566406 155.800781 163.078125 L 155.800781 157.722656 C 155.800781 157.230469 155.894531 156.761719 156.082031 156.308594 C 156.269531 155.855469 156.535156 155.453125 156.882812 155.109375 C 157.230469 154.761719 157.628906 154.492188 158.082031 154.304688 C 158.535156 154.117188 159.007812 154.023438 159.496094 154.023438 Z M 159.496094 154.023438 " fill-opacity="1" fill-rule="nonzero"/><path fill="#ffffff" d="M 210.496094 154.023438 L 215.851562 154.023438 C 216.34375 154.023438 216.8125 154.117188 217.265625 154.304688 C 217.71875 154.492188 218.121094 154.761719 218.464844 155.109375 C 218.8125 155.453125 219.082031 155.855469 219.269531 156.308594 C 219.457031 156.761719 219.550781 157.230469 219.550781 157.722656 L 219.550781 163.078125 C 219.550781 163.566406 219.457031 164.039062 219.269531 164.492188 C 219.082031 164.945312 218.8125 165.34375 218.464844 165.691406 C 218.121094 166.039062 217.71875 166.304688 217.265625 166.492188 C 216.8125 166.679688 216.34375 166.773438 215.851562 166.773438 L 210.496094 166.773438 C 210.007812 166.773438 209.535156 166.679688 209.082031 166.492188 C 208.628906 166.304688 208.230469 166.039062 207.882812 165.691406 C 207.535156 165.34375 207.269531 164.945312 207.082031 164.492188 C 206.894531 164.039062 206.800781 163.566406 206.800781 163.078125 L 206.800781 157.722656 C 206.800781 157.230469 206.894531 156.761719 207.082031 156.308594 C 207.269531 155.855469 207.535156 155.453125 207.882812 155.109375 C 208.230469 154.761719 208.628906 154.492188 209.082031 154.304688 C 209.535156 154.117188 210.007812 154.023438 210.496094 154.023438 Z M 210.496094 154.023438 " fill-opacity="1" fill-rule="nonzero"/><path fill="#ffffff" d="M 184.996094 179.523438 L 190.351562 179.523438 C 190.84375 179.523438 191.3125 179.617188 191.765625 179.804688 C 192.21875 179.992188 192.621094 180.261719 192.964844 180.609375 C 193.3125 180.953125 193.582031 181.355469 193.769531 181.808594 C 193.957031 182.261719 194.050781 182.730469 194.050781 183.222656 L 194.050781 188.578125 C 194.050781 189.066406 193.957031 189.539062 193.769531 189.992188 C 193.582031 190.445312 193.3125 190.84375 192.964844 191.191406 C 192.621094 191.539062 192.21875 191.804688 191.765625 191.992188 C 191.3125 192.179688 190.84375 192.273438 190.351562 192.273438 L 184.996094 192.273438 C 184.507812 192.273438 184.035156 192.179688 183.582031 191.992188 C 183.128906 191.804688 182.730469 191.539062 182.382812 191.191406 C 182.035156 190.84375 181.769531 190.445312 181.582031 189.992188 C 181.394531 189.539062 181.300781 189.066406 181.300781 188.578125 L 181.300781 183.222656 C 181.300781 182.730469 181.394531 182.261719 181.582031 181.808594 C 181.769531 181.355469 182.035156 180.953125 182.382812 180.609375 C 182.730469 180.261719 183.128906 179.992188 183.582031 179.804688 C 184.035156 179.617188 184.507812 179.523438 184.996094 179.523438 Z M 184.996094 179.523438 " fill-opacity="1" fill-rule="nonzero"/><g fill="#ffffff" fill-opacity="1"><g transform="translate(54.040942, 248.075317)"><g><path d="M 13.796875 0.453125 C 11.585938 0.453125 9.625 0.175781 7.90625 -0.375 C 6.195312 -0.925781 4.585938 -1.859375 3.078125 -3.171875 C 2.253906 -3.910156 1.84375 -4.722656 1.84375 -5.609375 C 1.84375 -6.316406 2.101562 -6.9375 2.625 -7.46875 C 3.144531 -8.007812 3.773438 -8.28125 4.515625 -8.28125 C 5.085938 -8.28125 5.609375 -8.097656 6.078125 -7.734375 C 7.296875 -6.710938 8.488281 -5.972656 9.65625 -5.515625 C 10.820312 -5.054688 12.203125 -4.828125 13.796875 -4.828125 C 15.515625 -4.828125 16.992188 -5.207031 18.234375 -5.96875 C 19.484375 -6.738281 20.109375 -7.691406 20.109375 -8.828125 C 20.109375 -10.210938 19.492188 -11.296875 18.265625 -12.078125 C 17.035156 -12.859375 15.085938 -13.445312 12.421875 -13.84375 C 5.703125 -14.820312 2.34375 -17.953125 2.34375 -23.234375 C 2.34375 -25.160156 2.847656 -26.835938 3.859375 -28.265625 C 4.867188 -29.691406 6.25 -30.78125 8 -31.53125 C 9.75 -32.28125 11.695312 -32.65625 13.84375 -32.65625 C 15.78125 -32.65625 17.597656 -32.363281 19.296875 -31.78125 C 20.992188 -31.195312 22.410156 -30.429688 23.546875 -29.484375 C 24.441406 -28.773438 24.890625 -27.960938 24.890625 -27.046875 C 24.890625 -26.335938 24.628906 -25.710938 24.109375 -25.171875 C 23.585938 -24.640625 22.972656 -24.375 22.265625 -24.375 C 21.804688 -24.375 21.390625 -24.515625 21.015625 -24.796875 C 20.222656 -25.441406 19.113281 -26.03125 17.6875 -26.5625 C 16.257812 -27.101562 14.976562 -27.375 13.84375 -27.375 C 11.914062 -27.375 10.421875 -27.007812 9.359375 -26.28125 C 8.304688 -25.5625 7.78125 -24.617188 7.78125 -23.453125 C 7.78125 -22.140625 8.320312 -21.144531 9.40625 -20.46875 C 10.5 -19.789062 12.207031 -19.238281 14.53125 -18.8125 C 17.164062 -18.351562 19.273438 -17.765625 20.859375 -17.046875 C 22.441406 -16.328125 23.628906 -15.34375 24.421875 -14.09375 C 25.222656 -12.851562 25.625 -11.207031 25.625 -9.15625 C 25.625 -7.21875 25.078125 -5.519531 23.984375 -4.0625 C 22.898438 -2.613281 21.453125 -1.5 19.640625 -0.71875 C 17.828125 0.0625 15.878906 0.453125 13.796875 0.453125 Z M 13.796875 0.453125 "/></g></g></g><g fill="#ffffff" fill-opacity="1"><g transform="translate(79.660634, 248.075317)"><g><path d="M 15.921875 -25.0625 C 18.953125 -25.0625 21.050781 -24.132812 22.21875 -22.28125 C 23.382812 -20.425781 23.96875 -17.859375 23.96875 -14.578125 L 23.96875 -2.8125 C 23.96875 -2.007812 23.707031 -1.335938 23.1875 -0.796875 C 22.664062 -0.265625 22.003906 0 21.203125 0 C 20.410156 0 19.753906 -0.265625 19.234375 -0.796875 C 18.710938 -1.335938 18.453125 -2.007812 18.453125 -2.8125 L 18.453125 -14.578125 C 18.453125 -16.265625 18.117188 -17.59375 17.453125 -18.5625 C 16.796875 -19.53125 15.640625 -20.015625 13.984375 -20.015625 C 12.265625 -20.015625 10.921875 -19.5 9.953125 -18.46875 C 8.992188 -17.4375 8.515625 -16.140625 8.515625 -14.578125 L 8.515625 -2.8125 C 8.515625 -2.007812 8.253906 -1.335938 7.734375 -0.796875 C 7.210938 -0.265625 6.550781 0 5.75 0 C 4.945312 0 4.285156 -0.265625 3.765625 -0.796875 C 3.242188 -1.335938 2.984375 -2.007812 2.984375 -2.8125 L 2.984375 -31.234375 C 2.984375 -32.035156 3.242188 -32.703125 3.765625 -33.234375 C 4.285156 -33.773438 4.945312 -34.046875 5.75 -34.046875 C 6.550781 -34.046875 7.210938 -33.773438 7.734375 -33.234375 C 8.253906 -32.703125 8.515625 -32.035156 8.515625 -31.234375 L 8.515625 -21.0625 C 9.335938 -22.164062 10.382812 -23.109375 11.65625 -23.890625 C 12.925781 -24.671875 14.347656 -25.0625 15.921875 -25.0625 Z M 15.921875 -25.0625 "/></g></g></g><g fill="#ffffff" fill-opacity="1"><g transform="translate(104.774371, 248.075317)"><g><path d="M 21.25 -24.609375 C 22.050781 -24.609375 22.710938 -24.335938 23.234375 -23.796875 C 23.753906 -23.265625 24.015625 -22.597656 24.015625 -21.796875 L 24.015625 -10.125 C 24.015625 -6.8125 23.097656 -4.21875 21.265625 -2.34375 C 19.441406 -0.476562 16.847656 0.453125 13.484375 0.453125 C 10.109375 0.453125 7.515625 -0.476562 5.703125 -2.34375 C 3.890625 -4.21875 2.984375 -6.8125 2.984375 -10.125 L 2.984375 -21.796875 C 2.984375 -22.597656 3.242188 -23.265625 3.765625 -23.796875 C 4.285156 -24.335938 4.945312 -24.609375 5.75 -24.609375 C 6.550781 -24.609375 7.210938 -24.335938 7.734375 -23.796875 C 8.253906 -23.265625 8.515625 -22.597656 8.515625 -21.796875 L 8.515625 -10.125 C 8.515625 -8.25 8.925781 -6.859375 9.75 -5.953125 C 10.582031 -5.046875 11.828125 -4.59375 13.484375 -4.59375 C 15.171875 -4.59375 16.425781 -5.046875 17.25 -5.953125 C 18.070312 -6.859375 18.484375 -8.25 18.484375 -10.125 L 18.484375 -21.796875 C 18.484375 -22.597656 18.742188 -23.265625 19.265625 -23.796875 C 19.796875 -24.335938 20.457031 -24.609375 21.25 -24.609375 Z M 21.25 -24.609375 "/></g></g></g><g fill="#ffffff" fill-opacity="1"><g transform="translate(129.934102, 248.075317)"><g><path d="M 14.859375 -5.203125 C 15.285156 -5.203125 15.675781 -4.992188 16.03125 -4.578125 C 16.382812 -4.160156 16.5625 -3.613281 16.5625 -2.9375 C 16.5625 -2.113281 16.109375 -1.414062 15.203125 -0.84375 C 14.296875 -0.28125 13.273438 0 12.140625 0 C 10.242188 0 8.640625 -0.40625 7.328125 -1.21875 C 6.023438 -2.03125 5.375 -3.753906 5.375 -6.390625 L 5.375 -19.09375 L 3.265625 -19.09375 C 2.523438 -19.09375 1.910156 -19.335938 1.421875 -19.828125 C 0.929688 -20.316406 0.6875 -20.929688 0.6875 -21.671875 C 0.6875 -22.367188 0.929688 -22.957031 1.421875 -23.4375 C 1.910156 -23.914062 2.523438 -24.15625 3.265625 -24.15625 L 5.375 -24.15625 L 5.375 -27.09375 C 5.375 -27.894531 5.640625 -28.5625 6.171875 -29.09375 C 6.710938 -29.632812 7.382812 -29.90625 8.1875 -29.90625 C 8.957031 -29.90625 9.601562 -29.632812 10.125 -29.09375 C 10.644531 -28.5625 10.90625 -27.894531 10.90625 -27.09375 L 10.90625 -24.15625 L 14.171875 -24.15625 C 14.898438 -24.15625 15.507812 -23.90625 16 -23.40625 C 16.5 -22.914062 16.75 -22.304688 16.75 -21.578125 C 16.75 -20.867188 16.5 -20.273438 16 -19.796875 C 15.507812 -19.328125 14.898438 -19.09375 14.171875 -19.09375 L 10.90625 -19.09375 L 10.90625 -6.625 C 10.90625 -5.976562 11.070312 -5.507812 11.40625 -5.21875 C 11.738281 -4.925781 12.195312 -4.78125 12.78125 -4.78125 C 13.03125 -4.78125 13.367188 -4.84375 13.796875 -4.96875 C 14.171875 -5.125 14.523438 -5.203125 14.859375 -5.203125 Z M 14.859375 -5.203125 "/></g></g></g><g fill="#ffffff" fill-opacity="1"><g transform="translate(146.906525, 248.075317)"><g><path d="M 14.859375 -5.203125 C 15.285156 -5.203125 15.675781 -4.992188 16.03125 -4.578125 C 16.382812 -4.160156 16.5625 -3.613281 16.5625 -2.9375 C 16.5625 -2.113281 16.109375 -1.414062 15.203125 -0.84375 C 14.296875 -0.28125 13.273438 0 12.140625 0 C 10.242188 0 8.640625 -0.40625 7.328125 -1.21875 C 6.023438 -2.03125 5.375 -3.753906 5.375 -6.390625 L 5.375 -19.09375 L 3.265625 -19.09375 C 2.523438 -19.09375 1.910156 -19.335938 1.421875 -19.828125 C 0.929688 -20.316406 0.6875 -20.929688 0.6875 -21.671875 C 0.6875 -22.367188 0.929688 -22.957031 1.421875 -23.4375 C 1.910156 -23.914062 2.523438 -24.15625 3.265625 -24.15625 L 5.375 -24.15625 L 5.375 -27.09375 C 5.375 -27.894531 5.640625 -28.5625 6.171875 -29.09375 C 6.710938 -29.632812 7.382812 -29.90625 8.1875 -29.90625 C 8.957031 -29.90625 9.601562 -29.632812 10.125 -29.09375 C 10.644531 -28.5625 10.90625 -27.894531 10.90625 -27.09375 L 10.90625 -24.15625 L 14.171875 -24.15625 C 14.898438 -24.15625 15.507812 -23.90625 16 -23.40625 C 16.5 -22.914062 16.75 -22.304688 16.75 -21.578125 C 16.75 -20.867188 16.5 -20.273438 16 -19.796875 C 15.507812 -19.328125 14.898438 -19.09375 14.171875 -19.09375 L 10.90625 -19.09375 L 10.90625 -6.625 C 10.90625 -5.976562 11.070312 -5.507812 11.40625 -5.21875 C 11.738281 -4.925781 12.195312 -4.78125 12.78125 -4.78125 C 13.03125 -4.78125 13.367188 -4.84375 13.796875 -4.96875 C 14.171875 -5.125 14.523438 -5.203125 14.859375 -5.203125 Z M 14.859375 -5.203125 "/></g></g></g><g fill="#ffffff" fill-opacity="1"><g transform="translate(163.878947, 248.075317)"><g><path d="M 25.0625 -12.875 C 25.039062 -12.144531 24.753906 -11.546875 24.203125 -11.078125 C 23.648438 -10.617188 23.003906 -10.390625 22.265625 -10.390625 L 7.078125 -10.390625 C 7.453125 -8.585938 8.296875 -7.171875 9.609375 -6.140625 C 10.929688 -5.109375 12.421875 -4.59375 14.078125 -4.59375 C 15.335938 -4.59375 16.316406 -4.707031 17.015625 -4.9375 C 17.722656 -5.175781 18.28125 -5.425781 18.6875 -5.6875 C 19.101562 -5.945312 19.390625 -6.117188 19.546875 -6.203125 C 20.097656 -6.484375 20.617188 -6.625 21.109375 -6.625 C 21.753906 -6.625 22.304688 -6.394531 22.765625 -5.9375 C 23.222656 -5.476562 23.453125 -4.941406 23.453125 -4.328125 C 23.453125 -3.492188 23.023438 -2.738281 22.171875 -2.0625 C 21.316406 -1.363281 20.164062 -0.769531 18.71875 -0.28125 C 17.28125 0.207031 15.828125 0.453125 14.359375 0.453125 C 11.773438 0.453125 9.523438 -0.0820312 7.609375 -1.15625 C 5.691406 -2.226562 4.210938 -3.707031 3.171875 -5.59375 C 2.128906 -7.476562 1.609375 -9.597656 1.609375 -11.953125 C 1.609375 -14.597656 2.160156 -16.914062 3.265625 -18.90625 C 4.367188 -20.894531 5.820312 -22.414062 7.625 -23.46875 C 9.4375 -24.53125 11.375 -25.0625 13.4375 -25.0625 C 15.457031 -25.0625 17.363281 -24.507812 19.15625 -23.40625 C 20.945312 -22.3125 22.378906 -20.828125 23.453125 -18.953125 C 24.523438 -17.078125 25.0625 -15.050781 25.0625 -12.875 Z M 13.4375 -20.015625 C 9.875 -20.015625 7.769531 -18.34375 7.125 -15 L 19.1875 -15 L 19.1875 -15.3125 C 19.0625 -16.601562 18.429688 -17.707031 17.296875 -18.625 C 16.160156 -19.550781 14.875 -20.015625 13.4375 -20.015625 Z M 13.4375 -20.015625 "/></g></g></g><g fill="#ffffff" fill-opacity="1"><g transform="translate(188.71671, 248.075317)"><g><path d="M 15.78125 -25.0625 C 16.695312 -25.0625 17.46875 -24.800781 18.09375 -24.28125 C 18.726562 -23.757812 19.046875 -23.148438 19.046875 -22.453125 C 19.046875 -21.492188 18.800781 -20.773438 18.3125 -20.296875 C 17.820312 -19.828125 17.238281 -19.59375 16.5625 -19.59375 C 16.101562 -19.59375 15.582031 -19.703125 15 -19.921875 C 14.90625 -19.953125 14.695312 -20.007812 14.375 -20.09375 C 14.050781 -20.1875 13.707031 -20.234375 13.34375 -20.234375 C 12.539062 -20.234375 11.769531 -19.988281 11.03125 -19.5 C 10.300781 -19.007812 9.695312 -18.265625 9.21875 -17.265625 C 8.75 -16.273438 8.515625 -15.085938 8.515625 -13.703125 L 8.515625 -2.8125 C 8.515625 -2.007812 8.253906 -1.335938 7.734375 -0.796875 C 7.210938 -0.265625 6.550781 0 5.75 0 C 4.945312 0 4.285156 -0.265625 3.765625 -0.796875 C 3.242188 -1.335938 2.984375 -2.007812 2.984375 -2.8125 L 2.984375 -21.796875 C 2.984375 -22.597656 3.242188 -23.265625 3.765625 -23.796875 C 4.285156 -24.335938 4.945312 -24.609375 5.75 -24.609375 C 6.550781 -24.609375 7.210938 -24.335938 7.734375 -23.796875 C 8.253906 -23.265625 8.515625 -22.597656 8.515625 -21.796875 L 8.515625 -21.203125 C 9.210938 -22.460938 10.222656 -23.421875 11.546875 -24.078125 C 12.867188 -24.734375 14.28125 -25.0625 15.78125 -25.0625 Z M 15.78125 -25.0625 "/></g></g></g><g fill="#ffffff" fill-opacity="1"><g transform="translate(206.839035, 248.075317)"><g><path d="M 13.796875 0.453125 C 11.585938 0.453125 9.625 0.175781 7.90625 -0.375 C 6.195312 -0.925781 4.585938 -1.859375 3.078125 -3.171875 C 2.253906 -3.910156 1.84375 -4.722656 1.84375 -5.609375 C 1.84375 -6.316406 2.101562 -6.9375 2.625 -7.46875 C 3.144531 -8.007812 3.773438 -8.28125 4.515625 -8.28125 C 5.085938 -8.28125 5.609375 -8.097656 6.078125 -7.734375 C 7.296875 -6.710938 8.488281 -5.972656 9.65625 -5.515625 C 10.820312 -5.054688 12.203125 -4.828125 13.796875 -4.828125 C 15.515625 -4.828125 16.992188 -5.207031 18.234375 -5.96875 C 19.484375 -6.738281 20.109375 -7.691406 20.109375 -8.828125 C 20.109375 -10.210938 19.492188 -11.296875 18.265625 -12.078125 C 17.035156 -12.859375 15.085938 -13.445312 12.421875 -13.84375 C 5.703125 -14.820312 2.34375 -17.953125 2.34375 -23.234375 C 2.34375 -25.160156 2.847656 -26.835938 3.859375 -28.265625 C 4.867188 -29.691406 6.25 -30.78125 8 -31.53125 C 9.75 -32.28125 11.695312 -32.65625 13.84375 -32.65625 C 15.78125 -32.65625 17.597656 -32.363281 19.296875 -31.78125 C 20.992188 -31.195312 22.410156 -30.429688 23.546875 -29.484375 C 24.441406 -28.773438 24.890625 -27.960938 24.890625 -27.046875 C 24.890625 -26.335938 24.628906 -25.710938 24.109375 -25.171875 C 23.585938 -24.640625 22.972656 -24.375 22.265625 -24.375 C 21.804688 -24.375 21.390625 -24.515625 21.015625 -24.796875 C 20.222656 -25.441406 19.113281 -26.03125 17.6875 -26.5625 C 16.257812 -27.101562 14.976562 -27.375 13.84375 -27.375 C 11.914062 -27.375 10.421875 -27.007812 9.359375 -26.28125 C 8.304688 -25.5625 7.78125 -24.617188 7.78125 -23.453125 C 7.78125 -22.140625 8.320312 -21.144531 9.40625 -20.46875 C 10.5 -19.789062 12.207031 -19.238281 14.53125 -18.8125 C 17.164062 -18.351562 19.273438 -17.765625 20.859375 -17.046875 C 22.441406 -16.328125 23.628906 -15.34375 24.421875 -14.09375 C 25.222656 -12.851562 25.625 -11.207031 25.625 -9.15625 C 25.625 -7.21875 25.078125 -5.519531 23.984375 -4.0625 C 22.898438 -2.613281 21.453125 -1.5 19.640625 -0.71875 C 17.828125 0.0625 15.878906 0.453125 13.796875 0.453125 Z M 13.796875 0.453125 "/></g></g></g><g fill="#ffffff" fill-opacity="1"><g transform="translate(232.458727, 248.075317)"><g><path d="M 14.859375 -5.203125 C 15.285156 -5.203125 15.675781 -4.992188 16.03125 -4.578125 C 16.382812 -4.160156 16.5625 -3.613281 16.5625 -2.9375 C 16.5625 -2.113281 16.109375 -1.414062 15.203125 -0.84375 C 14.296875 -0.28125 13.273438 0 12.140625 0 C 10.242188 0 8.640625 -0.40625 7.328125 -1.21875 C 6.023438 -2.03125 5.375 -3.753906 5.375 -6.390625 L 5.375 -19.09375 L 3.265625 -19.09375 C 2.523438 -19.09375 1.910156 -19.335938 1.421875 -19.828125 C 0.929688 -20.316406 0.6875 -20.929688 0.6875 -21.671875 C 0.6875 -22.367188 0.929688 -22.957031 1.421875 -23.4375 C 1.910156 -23.914062 2.523438 -24.15625 3.265625 -24.15625 L 5.375 -24.15625 L 5.375 -27.09375 C 5.375 -27.894531 5.640625 -28.5625 6.171875 -29.09375 C 6.710938 -29.632812 7.382812 -29.90625 8.1875 -29.90625 C 8.957031 -29.90625 9.601562 -29.632812 10.125 -29.09375 C 10.644531 -28.5625 10.90625 -27.894531 10.90625 -27.09375 L 10.90625 -24.15625 L 14.171875 -24.15625 C 14.898438 -24.15625 15.507812 -23.90625 16 -23.40625 C 16.5 -22.914062 16.75 -22.304688 16.75 -21.578125 C 16.75 -20.867188 16.5 -20.273438 16 -19.796875 C 15.507812 -19.328125 14.898438 -19.09375 14.171875 -19.09375 L 10.90625 -19.09375 L 10.90625 -6.625 C 10.90625 -5.976562 11.070312 -5.507812 11.40625 -5.21875 C 11.738281 -4.925781 12.195312 -4.78125 12.78125 -4.78125 C 13.03125 -4.78125 13.367188 -4.84375 13.796875 -4.96875 C 14.171875 -5.125 14.523438 -5.203125 14.859375 -5.203125 Z M 14.859375 -5.203125 "/></g></g></g><g fill="#ffffff" fill-opacity="1"><g transform="translate(249.43115, 248.075317)"><g><path d="M 26.640625 -12.28125 C 26.640625 -9.832031 26.085938 -7.632812 24.984375 -5.6875 C 23.878906 -3.738281 22.367188 -2.226562 20.453125 -1.15625 C 18.535156 -0.0820312 16.425781 0.453125 14.125 0.453125 C 11.789062 0.453125 9.671875 -0.0820312 7.765625 -1.15625 C 5.867188 -2.226562 4.367188 -3.738281 3.265625 -5.6875 C 2.160156 -7.632812 1.609375 -9.832031 1.609375 -12.28125 C 1.609375 -14.738281 2.160156 -16.9375 3.265625 -18.875 C 4.367188 -20.820312 5.867188 -22.335938 7.765625 -23.421875 C 9.671875 -24.515625 11.789062 -25.0625 14.125 -25.0625 C 16.425781 -25.0625 18.535156 -24.515625 20.453125 -23.421875 C 22.367188 -22.335938 23.878906 -20.820312 24.984375 -18.875 C 26.085938 -16.9375 26.640625 -14.738281 26.640625 -12.28125 Z M 21.109375 -12.28125 C 21.109375 -13.78125 20.796875 -15.117188 20.171875 -16.296875 C 19.546875 -17.484375 18.703125 -18.398438 17.640625 -19.046875 C 16.578125 -19.691406 15.40625 -20.015625 14.125 -20.015625 C 12.832031 -20.015625 11.65625 -19.691406 10.59375 -19.046875 C 9.539062 -18.398438 8.695312 -17.484375 8.0625 -16.296875 C 7.4375 -15.117188 7.125 -13.78125 7.125 -12.28125 C 7.125 -10.78125 7.4375 -9.445312 8.0625 -8.28125 C 8.695312 -7.113281 9.539062 -6.207031 10.59375 -5.5625 C 11.65625 -4.914062 12.832031 -4.59375 14.125 -4.59375 C 15.40625 -4.59375 16.578125 -4.914062 17.640625 -5.5625 C 18.703125 -6.207031 19.546875 -7.113281 20.171875 -8.28125 C 20.796875 -9.445312 21.109375 -10.78125 21.109375 -12.28125 Z M 21.109375 -12.28125 "/></g></g></g><g fill="#ffffff" fill-opacity="1"><g transform="translate(275.832782, 248.075317)"><g><path d="M 15.78125 -25.0625 C 16.695312 -25.0625 17.46875 -24.800781 18.09375 -24.28125 C 18.726562 -23.757812 19.046875 -23.148438 19.046875 -22.453125 C 19.046875 -21.492188 18.800781 -20.773438 18.3125 -20.296875 C 17.820312 -19.828125 17.238281 -19.59375 16.5625 -19.59375 C 16.101562 -19.59375 15.582031 -19.703125 15 -19.921875 C 14.90625 -19.953125 14.695312 -20.007812 14.375 -20.09375 C 14.050781 -20.1875 13.707031 -20.234375 13.34375 -20.234375 C 12.539062 -20.234375 11.769531 -19.988281 11.03125 -19.5 C 10.300781 -19.007812 9.695312 -18.265625 9.21875 -17.265625 C 8.75 -16.273438 8.515625 -15.085938 8.515625 -13.703125 L 8.515625 -2.8125 C 8.515625 -2.007812 8.253906 -1.335938 7.734375 -0.796875 C 7.210938 -0.265625 6.550781 0 5.75 0 C 4.945312 0 4.285156 -0.265625 3.765625 -0.796875 C 3.242188 -1.335938 2.984375 -2.007812 2.984375 -2.8125 L 2.984375 -21.796875 C 2.984375 -22.597656 3.242188 -23.265625 3.765625 -23.796875 C 4.285156 -24.335938 4.945312 -24.609375 5.75 -24.609375 C 6.550781 -24.609375 7.210938 -24.335938 7.734375 -23.796875 C 8.253906 -23.265625 8.515625 -22.597656 8.515625 -21.796875 L 8.515625 -21.203125 C 9.210938 -22.460938 10.222656 -23.421875 11.546875 -24.078125 C 12.867188 -24.734375 14.28125 -25.0625 15.78125 -25.0625 Z M 15.78125 -25.0625 "/></g></g></g><g fill="#ffffff" fill-opacity="1"><g transform="translate(293.955095, 248.075317)"><g><path d="M 21.25 -24.609375 C 22.050781 -24.609375 22.710938 -24.335938 23.234375 -23.796875 C 23.753906 -23.265625 24.015625 -22.597656 24.015625 -21.796875 L 24.015625 -2.25 C 24.015625 1.726562 22.941406 4.628906 20.796875 6.453125 C 18.648438 8.285156 15.78125 9.203125 12.1875 9.203125 C 11.144531 9.203125 10.078125 9.113281 8.984375 8.9375 C 7.898438 8.769531 7.019531 8.550781 6.34375 8.28125 C 4.84375 7.632812 4.09375 6.742188 4.09375 5.609375 C 4.09375 5.398438 4.140625 5.15625 4.234375 4.875 C 4.421875 4.195312 4.734375 3.679688 5.171875 3.328125 C 5.617188 2.984375 6.101562 2.8125 6.625 2.8125 C 6.925781 2.8125 7.21875 2.851562 7.5 2.9375 C 7.707031 3.03125 8.082031 3.179688 8.625 3.390625 C 9.164062 3.609375 9.734375 3.785156 10.328125 3.921875 C 10.921875 4.066406 11.539062 4.140625 12.1875 4.140625 C 14.363281 4.140625 15.960938 3.671875 16.984375 2.734375 C 18.015625 1.796875 18.53125 0.195312 18.53125 -2.0625 L 18.53125 -2.53125 C 16.9375 -0.539062 14.457031 0.453125 11.09375 0.453125 C 9.488281 0.453125 8.070312 0.078125 6.84375 -0.671875 C 5.625 -1.421875 4.675781 -2.460938 4 -3.796875 C 3.320312 -5.128906 2.984375 -6.65625 2.984375 -8.375 L 2.984375 -21.796875 C 2.984375 -22.597656 3.242188 -23.265625 3.765625 -23.796875 C 4.285156 -24.335938 4.945312 -24.609375 5.75 -24.609375 C 6.550781 -24.609375 7.210938 -24.335938 7.734375 -23.796875 C 8.253906 -23.265625 8.515625 -22.597656 8.515625 -21.796875 L 8.515625 -10.03125 C 8.515625 -8.09375 8.9375 -6.703125 9.78125 -5.859375 C 10.625 -5.015625 11.859375 -4.59375 13.484375 -4.59375 C 15.078125 -4.59375 16.304688 -5.0625 17.171875 -6 C 18.046875 -6.9375 18.484375 -8.28125 18.484375 -10.03125 L 18.484375 -21.796875 C 18.484375 -22.597656 18.742188 -23.265625 19.265625 -23.796875 C 19.796875 -24.335938 20.457031 -24.609375 21.25 -24.609375 Z M 21.25 -24.609375 "/></g></g></g></svg>