<svg xmlns="http://www.w3.org/2000/svg" xmlns:xlink="http://www.w3.org/1999/xlink" width="500" zoomAndPan="magnify" viewBox="0 0 375 374.999991" height="500" preserveAspectRatio="xMidYMid meet" version="1.0"><defs><clipPath id="918d839bc7"><path d="M 37.5 37.5 L 102 37.5 L 102 102 L 37.5 102 Z M 37.5 37.5 " clip-rule="nonzero"/></clipPath><clipPath id="734ce61ea5"><path d="M 37.5 273 L 102 273 L 102 337.5 L 37.5 337.5 Z M 37.5 273 " clip-rule="nonzero"/></clipPath><clipPath id="55c90dbd2a"><path d="M 273 37.5 L 337.5 37.5 L 337.5 102 L 273 102 Z M 273 37.5 " clip-rule="nonzero"/></clipPath><clipPath id="b1284578c8"><path d="M 273 273 L 337.5 273 L 337.5 337.5 L 273 337.5 Z M 273 273 " clip-rule="nonzero"/></clipPath></defs><g clip-path="url(#918d839bc7)"><path fill="#ffffff" d="M 48.214844 101.785156 C 48.917969 101.785156 49.613281 101.71875 50.304688 101.578125 C 50.996094 101.441406 51.664062 101.238281 52.316406 100.96875 C 52.964844 100.699219 53.582031 100.371094 54.167969 99.980469 C 54.75 99.589844 55.292969 99.144531 55.789062 98.648438 C 56.289062 98.148438 56.730469 97.609375 57.121094 97.023438 C 57.515625 96.4375 57.84375 95.820312 58.113281 95.171875 C 58.382812 94.523438 58.585938 93.851562 58.722656 93.160156 C 58.859375 92.472656 58.929688 91.773438 58.929688 91.070312 L 58.929688 84.535156 C 58.929688 83.699219 58.972656 82.863281 59.058594 82.027344 C 59.140625 81.195312 59.265625 80.367188 59.429688 79.542969 C 59.59375 78.722656 59.796875 77.910156 60.042969 77.109375 C 60.289062 76.304688 60.570312 75.519531 60.890625 74.746094 C 61.214844 73.96875 61.574219 73.214844 61.96875 72.476562 C 62.363281 71.734375 62.792969 71.019531 63.261719 70.320312 C 63.726562 69.625 64.226562 68.953125 64.757812 68.304688 C 65.289062 67.65625 65.851562 67.035156 66.445312 66.445312 C 67.035156 65.851562 67.65625 65.289062 68.304688 64.757812 C 68.953125 64.226562 69.625 63.726562 70.320312 63.261719 C 71.019531 62.792969 71.734375 62.363281 72.476562 61.96875 C 73.214844 61.574219 73.96875 61.214844 74.746094 60.890625 C 75.519531 60.570312 76.304688 60.289062 77.109375 60.042969 C 77.910156 59.800781 78.722656 59.59375 79.542969 59.429688 C 80.367188 59.265625 81.195312 59.140625 82.027344 59.058594 C 82.863281 58.972656 83.699219 58.929688 84.535156 58.929688 L 91.070312 58.929688 C 91.773438 58.929688 92.472656 58.859375 93.160156 58.722656 C 93.851562 58.585938 94.523438 58.382812 95.171875 58.113281 C 95.820312 57.84375 96.4375 57.515625 97.023438 57.121094 C 97.609375 56.730469 98.148438 56.289062 98.648438 55.789062 C 99.144531 55.292969 99.589844 54.75 99.980469 54.167969 C 100.371094 53.582031 100.699219 52.964844 100.96875 52.316406 C 101.238281 51.664062 101.441406 50.996094 101.578125 50.304688 C 101.71875 49.613281 101.785156 48.917969 101.785156 48.214844 C 101.785156 47.511719 101.71875 46.8125 101.578125 46.125 C 101.441406 45.433594 101.238281 44.765625 100.96875 44.113281 C 100.699219 43.464844 100.371094 42.847656 99.980469 42.261719 C 99.589844 41.675781 99.144531 41.136719 98.648438 40.636719 C 98.148438 40.140625 97.609375 39.695312 97.023438 39.304688 C 96.4375 38.914062 95.820312 38.585938 95.171875 38.316406 C 94.523438 38.046875 93.851562 37.84375 93.160156 37.707031 C 92.472656 37.570312 91.773438 37.5 91.070312 37.5 L 84.535156 37.5 C 82.996094 37.5 81.460938 37.578125 79.925781 37.730469 C 78.394531 37.882812 76.875 38.109375 75.363281 38.414062 C 73.851562 38.714844 72.359375 39.089844 70.886719 39.539062 C 69.414062 39.984375 67.964844 40.503906 66.542969 41.09375 C 65.121094 41.683594 63.730469 42.34375 62.375 43.070312 C 61.015625 43.796875 59.695312 44.585938 58.417969 45.445312 C 57.136719 46.300781 55.902344 47.214844 54.710938 48.191406 C 53.519531 49.171875 52.382812 50.203125 51.292969 51.292969 C 50.203125 52.382812 49.171875 53.519531 48.191406 54.710938 C 47.214844 55.902344 46.300781 57.136719 45.445312 58.417969 C 44.585938 59.695312 43.796875 61.015625 43.070312 62.375 C 42.34375 63.730469 41.683594 65.121094 41.09375 66.542969 C 40.503906 67.964844 39.984375 69.414062 39.539062 70.886719 C 39.089844 72.359375 38.714844 73.851562 38.414062 75.363281 C 38.109375 76.875 37.882812 78.394531 37.730469 79.925781 C 37.578125 81.460938 37.5 82.996094 37.5 84.535156 L 37.5 91.070312 C 37.5 91.773438 37.570312 92.472656 37.707031 93.160156 C 37.84375 93.851562 38.046875 94.523438 38.316406 95.171875 C 38.585938 95.820312 38.914062 96.4375 39.304688 97.023438 C 39.695312 97.609375 40.140625 98.148438 40.636719 98.648438 C 41.136719 99.144531 41.675781 99.589844 42.261719 99.980469 C 42.847656 100.371094 43.464844 100.699219 44.113281 100.96875 C 44.765625 101.238281 45.433594 101.441406 46.125 101.578125 C 46.8125 101.71875 47.511719 101.785156 48.214844 101.785156 Z M 48.214844 101.785156 " fill-opacity="1" fill-rule="nonzero"/></g><g clip-path="url(#734ce61ea5)"><path fill="#ffffff" d="M 84.535156 337.5 L 91.070312 337.5 C 91.773438 337.5 92.472656 337.429688 93.160156 337.292969 C 93.851562 337.15625 94.523438 336.953125 95.171875 336.683594 C 95.820312 336.414062 96.4375 336.085938 97.023438 335.695312 C 97.609375 335.304688 98.148438 334.859375 98.648438 334.363281 C 99.144531 333.863281 99.589844 333.324219 99.980469 332.738281 C 100.371094 332.152344 100.699219 331.535156 100.96875 330.886719 C 101.238281 330.234375 101.441406 329.566406 101.578125 328.875 C 101.71875 328.1875 101.785156 327.488281 101.785156 326.785156 C 101.785156 326.082031 101.71875 325.386719 101.578125 324.695312 C 101.441406 324.003906 101.238281 323.335938 100.96875 322.683594 C 100.699219 322.035156 100.371094 321.417969 99.980469 320.832031 C 99.589844 320.25 99.144531 319.707031 98.648438 319.210938 C 98.148438 318.710938 97.609375 318.269531 97.023438 317.878906 C 96.4375 317.484375 95.820312 317.15625 95.171875 316.886719 C 94.523438 316.617188 93.851562 316.414062 93.160156 316.277344 C 92.472656 316.140625 91.773438 316.070312 91.070312 316.070312 L 84.535156 316.070312 C 83.699219 316.070312 82.863281 316.027344 82.027344 315.941406 C 81.195312 315.859375 80.367188 315.734375 79.542969 315.570312 C 78.722656 315.40625 77.910156 315.199219 77.109375 314.957031 C 76.304688 314.710938 75.519531 314.429688 74.746094 314.109375 C 73.96875 313.785156 73.214844 313.425781 72.476562 313.03125 C 71.734375 312.636719 71.019531 312.207031 70.320312 311.738281 C 69.625 311.273438 68.953125 310.773438 68.304688 310.242188 C 67.65625 309.710938 67.035156 309.148438 66.445312 308.554688 C 65.851562 307.964844 65.289062 307.34375 64.757812 306.695312 C 64.226562 306.046875 63.726562 305.375 63.261719 304.679688 C 62.792969 303.980469 62.363281 303.265625 61.96875 302.523438 C 61.574219 301.785156 61.214844 301.03125 60.890625 300.253906 C 60.570312 299.480469 60.289062 298.695312 60.042969 297.890625 C 59.800781 297.089844 59.59375 296.277344 59.429688 295.457031 C 59.265625 294.632812 59.140625 293.804688 59.058594 292.972656 C 58.972656 292.136719 58.929688 291.300781 58.929688 290.464844 L 58.929688 283.929688 C 58.929688 283.226562 58.859375 282.527344 58.722656 281.839844 C 58.585938 281.148438 58.382812 280.476562 58.113281 279.828125 C 57.84375 279.179688 57.515625 278.5625 57.121094 277.976562 C 56.730469 277.390625 56.289062 276.851562 55.789062 276.351562 C 55.292969 275.855469 54.75 275.410156 54.167969 275.019531 C 53.582031 274.628906 52.964844 274.300781 52.316406 274.03125 C 51.664062 273.761719 50.996094 273.558594 50.304688 273.421875 C 49.613281 273.28125 48.917969 273.214844 48.214844 273.214844 C 47.511719 273.214844 46.8125 273.28125 46.125 273.421875 C 45.433594 273.558594 44.765625 273.761719 44.113281 274.03125 C 43.464844 274.300781 42.847656 274.628906 42.261719 275.019531 C 41.675781 275.410156 41.136719 275.855469 40.636719 276.351562 C 40.140625 276.851562 39.695312 277.390625 39.304688 277.976562 C 38.914062 278.5625 38.585938 279.179688 38.316406 279.828125 C 38.046875 280.476562 37.84375 281.148438 37.707031 281.839844 C 37.570312 282.527344 37.5 283.226562 37.5 283.929688 L 37.5 290.464844 C 37.5 292.003906 37.578125 293.539062 37.730469 295.074219 C 37.882812 296.605469 38.109375 298.125 38.414062 299.636719 C 38.714844 301.148438 39.089844 302.636719 39.539062 304.113281 C 39.984375 305.585938 40.503906 307.035156 41.09375 308.457031 C 41.683594 309.878906 42.34375 311.269531 43.070312 312.625 C 43.796875 313.984375 44.585938 315.304688 45.445312 316.582031 C 46.300781 317.863281 47.214844 319.097656 48.191406 320.289062 C 49.171875 321.480469 50.203125 322.617188 51.292969 323.707031 C 52.382812 324.796875 53.519531 325.828125 54.710938 326.808594 C 55.902344 327.785156 57.136719 328.699219 58.417969 329.554688 C 59.695312 330.414062 61.015625 331.203125 62.375 331.929688 C 63.730469 332.65625 65.121094 333.316406 66.542969 333.90625 C 67.964844 334.496094 69.414062 335.015625 70.886719 335.460938 C 72.359375 335.910156 73.851562 336.285156 75.363281 336.585938 C 76.875 336.890625 78.394531 337.117188 79.925781 337.269531 C 81.460938 337.421875 82.996094 337.5 84.535156 337.5 Z M 84.535156 337.5 " fill-opacity="1" fill-rule="nonzero"/></g><g clip-path="url(#55c90dbd2a)"><path fill="#ffffff" d="M 290.464844 37.5 L 283.929688 37.5 C 283.226562 37.5 282.527344 37.570312 281.839844 37.707031 C 281.148438 37.84375 280.476562 38.046875 279.828125 38.316406 C 279.179688 38.585938 278.5625 38.914062 277.976562 39.304688 C 277.390625 39.695312 276.851562 40.140625 276.351562 40.636719 C 275.855469 41.136719 275.410156 41.675781 275.019531 42.261719 C 274.628906 42.847656 274.300781 43.464844 274.03125 44.113281 C 273.761719 44.765625 273.558594 45.433594 273.421875 46.125 C 273.28125 46.8125 273.214844 47.511719 273.214844 48.214844 C 273.214844 48.917969 273.28125 49.613281 273.421875 50.304688 C 273.558594 50.996094 273.761719 51.664062 274.03125 52.316406 C 274.300781 52.964844 274.628906 53.582031 275.019531 54.167969 C 275.410156 54.75 275.855469 55.292969 276.351562 55.789062 C 276.851562 56.289062 277.390625 56.730469 277.976562 57.121094 C 278.5625 57.515625 279.179688 57.84375 279.828125 58.113281 C 280.476562 58.382812 281.148438 58.585938 281.839844 58.722656 C 282.527344 58.859375 283.226562 58.929688 283.929688 58.929688 L 290.464844 58.929688 C 291.300781 58.929688 292.136719 58.972656 292.972656 59.058594 C 293.804688 59.140625 294.632812 59.265625 295.457031 59.429688 C 296.277344 59.59375 297.089844 59.796875 297.890625 60.042969 C 298.695312 60.289062 299.480469 60.570312 300.253906 60.890625 C 301.03125 61.214844 301.785156 61.570312 302.523438 61.96875 C 303.265625 62.363281 303.980469 62.792969 304.679688 63.261719 C 305.375 63.726562 306.046875 64.226562 306.695312 64.757812 C 307.34375 65.289062 307.964844 65.851562 308.554688 66.445312 C 309.148438 67.035156 309.710938 67.65625 310.242188 68.304688 C 310.773438 68.953125 311.273438 69.625 311.738281 70.320312 C 312.207031 71.019531 312.636719 71.734375 313.03125 72.476562 C 313.425781 73.214844 313.785156 73.96875 314.109375 74.746094 C 314.429688 75.519531 314.710938 76.304688 314.957031 77.109375 C 315.199219 77.910156 315.40625 78.722656 315.570312 79.542969 C 315.734375 80.367188 315.859375 81.195312 315.941406 82.027344 C 316.027344 82.863281 316.070312 83.699219 316.070312 84.535156 L 316.070312 91.070312 C 316.070312 91.773438 316.140625 92.472656 316.277344 93.160156 C 316.414062 93.851562 316.617188 94.523438 316.886719 95.171875 C 317.15625 95.820312 317.484375 96.4375 317.878906 97.023438 C 318.269531 97.609375 318.710938 98.148438 319.210938 98.648438 C 319.707031 99.144531 320.25 99.589844 320.832031 99.980469 C 321.417969 100.371094 322.035156 100.699219 322.683594 100.96875 C 323.335938 101.238281 324.003906 101.441406 324.695312 101.578125 C 325.386719 101.71875 326.082031 101.785156 326.785156 101.785156 C 327.488281 101.785156 328.1875 101.71875 328.875 101.578125 C 329.566406 101.441406 330.234375 101.238281 330.886719 100.96875 C 331.535156 100.699219 332.152344 100.371094 332.738281 99.980469 C 333.324219 99.589844 333.863281 99.144531 334.363281 98.648438 C 334.859375 98.148438 335.304688 97.609375 335.695312 97.023438 C 336.085938 96.4375 336.414062 95.820312 336.683594 95.171875 C 336.953125 94.523438 337.15625 93.851562 337.292969 93.160156 C 337.429688 92.472656 337.5 91.773438 337.5 91.070312 L 337.5 84.535156 C 337.5 82.996094 337.421875 81.460938 337.269531 79.925781 C 337.117188 78.394531 336.890625 76.875 336.585938 75.363281 C 336.285156 73.851562 335.910156 72.359375 335.460938 70.886719 C 335.015625 69.414062 334.496094 67.964844 333.90625 66.542969 C 333.316406 65.121094 332.65625 63.730469 331.929688 62.375 C 331.203125 61.015625 330.414062 59.695312 329.554688 58.417969 C 328.699219 57.136719 327.785156 55.902344 326.808594 54.710938 C 325.828125 53.519531 324.796875 52.382812 323.707031 51.292969 C 322.617188 50.203125 321.480469 49.171875 320.289062 48.191406 C 319.097656 47.214844 317.863281 46.300781 316.582031 45.445312 C 315.304688 44.585938 313.984375 43.796875 312.625 43.070312 C 311.269531 42.34375 309.878906 41.683594 308.457031 41.09375 C 307.035156 40.503906 305.585938 39.984375 304.113281 39.539062 C 302.636719 39.089844 301.148438 38.714844 299.636719 38.414062 C 298.125 38.109375 296.605469 37.882812 295.074219 37.730469 C 293.539062 37.578125 292.003906 37.5 290.464844 37.5 Z M 290.464844 37.5 " fill-opacity="1" fill-rule="nonzero"/></g><g clip-path="url(#b1284578c8)"><path fill="#ffffff" d="M 326.785156 273.214844 C 326.082031 273.214844 325.386719 273.28125 324.695312 273.421875 C 324.003906 273.558594 323.335938 273.761719 322.683594 274.03125 C 322.035156 274.300781 321.417969 274.628906 320.832031 275.019531 C 320.25 275.410156 319.707031 275.855469 319.210938 276.351562 C 318.710938 276.851562 318.269531 277.390625 317.878906 277.976562 C 317.484375 278.5625 317.15625 279.179688 316.886719 279.828125 C 316.617188 280.476562 316.414062 281.148438 316.277344 281.839844 C 316.140625 282.527344 316.070312 283.226562 316.070312 283.929688 L 316.070312 290.464844 C 316.070312 291.300781 316.027344 292.136719 315.941406 292.972656 C 315.859375 293.804688 315.734375 294.632812 315.570312 295.457031 C 315.40625 296.277344 315.199219 297.089844 314.957031 297.890625 C 314.710938 298.695312 314.429688 299.480469 314.109375 300.253906 C 313.785156 301.03125 313.425781 301.785156 313.03125 302.523438 C 312.636719 303.265625 312.207031 303.980469 311.738281 304.679688 C 311.273438 305.375 310.773438 306.046875 310.242188 306.695312 C 309.710938 307.34375 309.148438 307.964844 308.554688 308.554688 C 307.964844 309.148438 307.34375 309.710938 306.695312 310.242188 C 306.046875 310.773438 305.375 311.273438 304.679688 311.738281 C 303.980469 312.207031 303.265625 312.636719 302.523438 313.03125 C 301.785156 313.425781 301.03125 313.785156 300.253906 314.109375 C 299.480469 314.429688 298.695312 314.710938 297.890625 314.957031 C 297.089844 315.199219 296.277344 315.40625 295.457031 315.570312 C 294.632812 315.734375 293.804688 315.859375 292.972656 315.941406 C 292.136719 316.027344 291.300781 316.070312 290.464844 316.070312 L 283.929688 316.070312 C 283.226562 316.070312 282.527344 316.140625 281.839844 316.277344 C 281.148438 316.414062 280.476562 316.617188 279.828125 316.886719 C 279.179688 317.15625 278.5625 317.484375 277.976562 317.878906 C 277.390625 318.269531 276.851562 318.710938 276.351562 319.210938 C 275.855469 319.707031 275.410156 320.25 275.019531 320.832031 C 274.628906 321.417969 274.300781 322.035156 274.03125 322.683594 C 273.761719 323.335938 273.558594 324.003906 273.421875 324.695312 C 273.28125 325.386719 273.214844 326.082031 273.214844 326.785156 C 273.214844 327.488281 273.28125 328.1875 273.421875 328.875 C 273.558594 329.566406 273.761719 330.234375 274.03125 330.886719 C 274.300781 331.535156 274.628906 332.152344 275.019531 332.738281 C 275.410156 333.324219 275.855469 333.863281 276.351562 334.363281 C 276.851562 334.859375 277.390625 335.304688 277.976562 335.695312 C 278.5625 336.085938 279.179688 336.414062 279.828125 336.683594 C 280.476562 336.953125 281.148438 337.15625 281.839844 337.292969 C 282.527344 337.429688 283.226562 337.5 283.929688 337.5 L 290.464844 337.5 C 292.003906 337.5 293.539062 337.421875 295.074219 337.269531 C 296.605469 337.117188 298.125 336.890625 299.636719 336.585938 C 301.148438 336.285156 302.636719 335.910156 304.113281 335.460938 C 305.585938 335.015625 307.035156 334.496094 308.457031 333.90625 C 309.878906 333.316406 311.269531 332.65625 312.625 331.929688 C 313.984375 331.203125 315.304688 330.414062 316.582031 329.554688 C 317.863281 328.699219 319.097656 327.785156 320.289062 326.808594 C 321.480469 325.828125 322.617188 324.796875 323.707031 323.707031 C 324.796875 322.617188 325.828125 321.480469 326.808594 320.289062 C 327.785156 319.097656 328.699219 317.863281 329.554688 316.582031 C 330.414062 315.304688 331.203125 313.984375 331.929688 312.625 C 332.65625 311.269531 333.316406 309.878906 333.90625 308.457031 C 334.496094 307.035156 335.015625 305.585938 335.460938 304.113281 C 335.910156 302.636719 336.285156 301.148438 336.585938 299.636719 C 336.890625 298.125 337.117188 296.605469 337.269531 295.074219 C 337.421875 293.539062 337.5 292.003906 337.5 290.464844 L 337.5 283.929688 C 337.5 283.226562 337.429688 282.527344 337.292969 281.839844 C 337.15625 281.148438 336.953125 280.476562 336.683594 279.828125 C 336.414062 279.179688 336.085938 278.5625 335.695312 277.976562 C 335.304688 277.390625 334.859375 276.851562 334.363281 276.351562 C 333.863281 275.855469 333.324219 275.410156 332.738281 275.019531 C 332.152344 274.628906 331.535156 274.300781 330.886719 274.03125 C 330.234375 273.761719 329.566406 273.558594 328.875 273.421875 C 328.1875 273.28125 327.488281 273.214844 326.785156 273.214844 Z M 326.785156 273.214844 " fill-opacity="1" fill-rule="nonzero"/></g><path fill="#ffffff" d="M 178.5 80.355469 L 196.5 80.355469 C 197.316406 80.355469 198.125 80.4375 198.925781 80.597656 C 199.726562 80.753906 200.503906 80.992188 201.257812 81.304688 C 202.011719 81.617188 202.726562 82 203.40625 82.453125 C 204.082031 82.90625 204.710938 83.421875 205.289062 83.996094 C 205.867188 84.574219 206.378906 85.203125 206.835938 85.878906 C 207.289062 86.558594 207.671875 87.277344 207.984375 88.03125 C 208.292969 88.785156 208.53125 89.5625 208.691406 90.359375 C 208.847656 91.160156 208.929688 91.96875 208.929688 92.785156 L 208.929688 110.785156 C 208.929688 111.601562 208.847656 112.410156 208.691406 113.210938 C 208.53125 114.011719 208.292969 114.789062 207.984375 115.542969 C 207.671875 116.296875 207.289062 117.011719 206.832031 117.691406 C 206.378906 118.371094 205.867188 118.996094 205.289062 119.574219 C 204.710938 120.152344 204.082031 120.667969 203.40625 121.121094 C 202.726562 121.574219 202.011719 121.957031 201.257812 122.269531 C 200.503906 122.582031 199.726562 122.816406 198.925781 122.976562 C 198.125 123.132812 197.316406 123.214844 196.5 123.214844 L 178.5 123.214844 C 177.683594 123.214844 176.875 123.132812 176.074219 122.976562 C 175.273438 122.816406 174.496094 122.582031 173.742188 122.269531 C 172.988281 121.957031 172.273438 121.574219 171.59375 121.121094 C 170.917969 120.667969 170.289062 120.152344 169.710938 119.574219 C 169.132812 118.996094 168.621094 118.371094 168.164062 117.691406 C 167.710938 117.011719 167.328125 116.296875 167.015625 115.542969 C 166.707031 114.789062 166.46875 114.011719 166.308594 113.210938 C 166.152344 112.410156 166.070312 111.601562 166.070312 110.785156 L 166.070312 92.785156 C 166.070312 91.96875 166.152344 91.160156 166.308594 90.359375 C 166.46875 89.5625 166.707031 88.785156 167.015625 88.03125 C 167.328125 87.277344 167.710938 86.558594 168.164062 85.878906 C 168.621094 85.203125 169.132812 84.574219 169.710938 83.996094 C 170.289062 83.421875 170.917969 82.90625 171.59375 82.453125 C 172.273438 82 172.988281 81.617188 173.742188 81.304688 C 174.496094 80.992188 175.273438 80.753906 176.074219 80.597656 C 176.875 80.4375 177.683594 80.355469 178.5 80.355469 Z M 178.5 80.355469 " fill-opacity="1" fill-rule="nonzero"/><path fill="#ffffff" d="M 178.5 166.070312 L 196.5 166.070312 C 197.316406 166.070312 198.125 166.152344 198.925781 166.308594 C 199.726562 166.46875 200.503906 166.707031 201.257812 167.015625 C 202.011719 167.328125 202.726562 167.710938 203.40625 168.164062 C 204.082031 168.621094 204.710938 169.132812 205.289062 169.710938 C 205.867188 170.289062 206.378906 170.917969 206.835938 171.59375 C 207.289062 172.273438 207.671875 172.988281 207.984375 173.742188 C 208.292969 174.496094 208.53125 175.273438 208.691406 176.074219 C 208.847656 176.875 208.929688 177.683594 208.929688 178.5 L 208.929688 196.5 C 208.929688 197.316406 208.847656 198.125 208.691406 198.925781 C 208.53125 199.726562 208.292969 200.503906 207.984375 201.257812 C 207.671875 202.011719 207.289062 202.726562 206.832031 203.40625 C 206.378906 204.082031 205.867188 204.710938 205.289062 205.289062 C 204.710938 205.867188 204.082031 206.378906 203.40625 206.832031 C 202.726562 207.289062 202.011719 207.671875 201.257812 207.984375 C 200.503906 208.292969 199.726562 208.53125 198.925781 208.691406 C 198.125 208.847656 197.316406 208.929688 196.5 208.929688 L 178.5 208.929688 C 177.683594 208.929688 176.875 208.847656 176.074219 208.691406 C 175.273438 208.53125 174.496094 208.292969 173.742188 207.984375 C 172.988281 207.671875 172.273438 207.289062 171.59375 206.832031 C 170.917969 206.378906 170.289062 205.867188 169.710938 205.289062 C 169.132812 204.710938 168.621094 204.082031 168.164062 203.40625 C 167.710938 202.726562 167.328125 202.011719 167.015625 201.257812 C 166.707031 200.503906 166.46875 199.726562 166.308594 198.925781 C 166.152344 198.125 166.070312 197.316406 166.070312 196.5 L 166.070312 178.5 C 166.070312 177.683594 166.152344 176.875 166.308594 176.074219 C 166.46875 175.273438 166.707031 174.496094 167.015625 173.742188 C 167.328125 172.988281 167.710938 172.273438 168.164062 171.59375 C 168.621094 170.917969 169.132812 170.289062 169.710938 169.710938 C 170.289062 169.132812 170.917969 168.621094 171.59375 168.164062 C 172.273438 167.710938 172.988281 167.328125 173.742188 167.015625 C 174.496094 166.707031 175.273438 166.46875 176.074219 166.308594 C 176.875 166.152344 177.683594 166.070312 178.5 166.070312 Z M 178.5 166.070312 " fill-opacity="1" fill-rule="nonzero"/><path fill="#ffffff" d="M 92.785156 166.070312 L 110.785156 166.070312 C 111.601562 166.070312 112.410156 166.152344 113.210938 166.308594 C 114.011719 166.46875 114.789062 166.707031 115.542969 167.015625 C 116.296875 167.328125 117.011719 167.710938 117.691406 168.164062 C 118.371094 168.621094 118.996094 169.132812 119.574219 169.710938 C 120.152344 170.289062 120.667969 170.917969 121.121094 171.59375 C 121.574219 172.273438 121.957031 172.988281 122.269531 173.742188 C 122.582031 174.496094 122.816406 175.273438 122.976562 176.074219 C 123.132812 176.875 123.214844 177.683594 123.214844 178.5 L 123.214844 196.5 C 123.214844 197.316406 123.132812 198.125 122.976562 198.925781 C 122.816406 199.726562 122.582031 200.503906 122.269531 201.257812 C 121.957031 202.011719 121.574219 202.726562 121.121094 203.40625 C 120.667969 204.082031 120.152344 204.710938 119.574219 205.289062 C 118.996094 205.867188 118.371094 206.378906 117.691406 206.832031 C 117.011719 207.289062 116.296875 207.671875 115.542969 207.984375 C 114.789062 208.292969 114.011719 208.53125 113.210938 208.691406 C 112.410156 208.847656 111.601562 208.929688 110.785156 208.929688 L 92.785156 208.929688 C 91.96875 208.929688 91.160156 208.847656 90.359375 208.691406 C 89.5625 208.53125 88.785156 208.292969 88.03125 207.984375 C 87.277344 207.671875 86.558594 207.289062 85.878906 206.832031 C 85.203125 206.378906 84.574219 205.867188 83.996094 205.289062 C 83.421875 204.710938 82.90625 204.082031 82.453125 203.40625 C 82 202.726562 81.617188 202.011719 81.304688 201.257812 C 80.992188 200.503906 80.753906 199.726562 80.597656 198.925781 C 80.4375 198.125 80.355469 197.316406 80.355469 196.5 L 80.355469 178.5 C 80.355469 177.683594 80.4375 176.875 80.597656 176.074219 C 80.753906 175.273438 80.992188 174.496094 81.304688 173.742188 C 81.617188 172.988281 82 172.273438 82.453125 171.59375 C 82.90625 170.917969 83.421875 170.289062 83.996094 169.710938 C 84.574219 169.132812 85.203125 168.621094 85.878906 168.164062 C 86.558594 167.710938 87.277344 167.328125 88.03125 167.015625 C 88.785156 166.707031 89.5625 166.46875 90.359375 166.308594 C 91.160156 166.152344 91.96875 166.070312 92.785156 166.070312 Z M 92.785156 166.070312 " fill-opacity="1" fill-rule="nonzero"/><path fill="#ffffff" d="M 264.214844 166.070312 L 282.214844 166.070312 C 283.03125 166.070312 283.839844 166.152344 284.640625 166.308594 C 285.4375 166.46875 286.214844 166.707031 286.96875 167.015625 C 287.722656 167.328125 288.441406 167.710938 289.121094 168.164062 C 289.796875 168.621094 290.425781 169.132812 291.003906 169.710938 C 291.578125 170.289062 292.09375 170.917969 292.546875 171.59375 C 293 172.273438 293.382812 172.988281 293.695312 173.742188 C 294.007812 174.496094 294.246094 175.273438 294.402344 176.074219 C 294.5625 176.875 294.644531 177.683594 294.644531 178.5 L 294.644531 196.5 C 294.644531 197.316406 294.5625 198.125 294.402344 198.925781 C 294.246094 199.726562 294.007812 200.503906 293.695312 201.257812 C 293.382812 202.011719 293 202.726562 292.546875 203.40625 C 292.09375 204.082031 291.578125 204.710938 291.003906 205.289062 C 290.425781 205.867188 289.796875 206.378906 289.121094 206.832031 C 288.441406 207.289062 287.722656 207.671875 286.96875 207.984375 C 286.214844 208.292969 285.4375 208.53125 284.640625 208.691406 C 283.839844 208.847656 283.03125 208.929688 282.214844 208.929688 L 264.214844 208.929688 C 263.398438 208.929688 262.589844 208.847656 261.789062 208.691406 C 260.988281 208.53125 260.210938 208.292969 259.457031 207.984375 C 258.703125 207.671875 257.988281 207.289062 257.308594 206.832031 C 256.628906 206.378906 256.003906 205.867188 255.425781 205.289062 C 254.847656 204.710938 254.332031 204.082031 253.878906 203.40625 C 253.425781 202.726562 253.042969 202.011719 252.730469 201.257812 C 252.417969 200.503906 252.183594 199.726562 252.023438 198.925781 C 251.867188 198.125 251.785156 197.316406 251.785156 196.5 L 251.785156 178.5 C 251.785156 177.683594 251.867188 176.875 252.023438 176.074219 C 252.183594 175.273438 252.417969 174.496094 252.730469 173.742188 C 253.042969 172.988281 253.425781 172.273438 253.878906 171.59375 C 254.332031 170.917969 254.847656 170.289062 255.425781 169.710938 C 256.003906 169.132812 256.628906 168.621094 257.308594 168.164062 C 257.988281 167.710938 258.703125 167.328125 259.457031 167.015625 C 260.210938 166.707031 260.988281 166.46875 261.789062 166.308594 C 262.589844 166.152344 263.398438 166.070312 264.214844 166.070312 Z M 264.214844 166.070312 " fill-opacity="1" fill-rule="nonzero"/><path fill="#ffffff" d="M 178.5 251.785156 L 196.5 251.785156 C 197.316406 251.785156 198.125 251.867188 198.925781 252.023438 C 199.726562 252.183594 200.503906 252.417969 201.257812 252.730469 C 202.011719 253.042969 202.726562 253.425781 203.40625 253.878906 C 204.082031 254.332031 204.710938 254.847656 205.289062 255.425781 C 205.867188 256.003906 206.378906 256.628906 206.835938 257.308594 C 207.289062 257.988281 207.671875 258.703125 207.984375 259.457031 C 208.292969 260.210938 208.53125 260.988281 208.691406 261.789062 C 208.847656 262.589844 208.929688 263.398438 208.929688 264.214844 L 208.929688 282.214844 C 208.929688 283.03125 208.847656 283.839844 208.691406 284.640625 C 208.53125 285.4375 208.292969 286.214844 207.984375 286.96875 C 207.671875 287.722656 207.289062 288.441406 206.832031 289.121094 C 206.378906 289.796875 205.867188 290.425781 205.289062 291.003906 C 204.710938 291.578125 204.082031 292.09375 203.40625 292.546875 C 202.726562 293 202.011719 293.382812 201.257812 293.695312 C 200.503906 294.007812 199.726562 294.246094 198.925781 294.402344 C 198.125 294.5625 197.316406 294.644531 196.5 294.644531 L 178.5 294.644531 C 177.683594 294.644531 176.875 294.5625 176.074219 294.402344 C 175.273438 294.246094 174.496094 294.007812 173.742188 293.695312 C 172.988281 293.382812 172.273438 293 171.59375 292.546875 C 170.917969 292.09375 170.289062 291.578125 169.710938 291.003906 C 169.132812 290.425781 168.621094 289.796875 168.164062 289.121094 C 167.710938 288.441406 167.328125 287.722656 167.015625 286.96875 C 166.707031 286.214844 166.46875 285.4375 166.308594 284.640625 C 166.152344 283.839844 166.070312 283.03125 166.070312 282.214844 L 166.070312 264.214844 C 166.070312 263.398438 166.152344 262.589844 166.308594 261.789062 C 166.46875 260.988281 166.707031 260.210938 167.015625 259.457031 C 167.328125 258.703125 167.710938 257.988281 168.164062 257.308594 C 168.621094 256.628906 169.132812 256.003906 169.710938 255.425781 C 170.289062 254.847656 170.917969 254.332031 171.59375 253.878906 C 172.273438 253.425781 172.988281 253.042969 173.742188 252.730469 C 174.496094 252.417969 175.273438 252.183594 176.074219 252.023438 C 176.875 251.867188 177.683594 251.785156 178.5 251.785156 Z M 178.5 251.785156 " fill-opacity="1" fill-rule="nonzero"/></svg>