<svg xmlns="http://www.w3.org/2000/svg" xmlns:xlink="http://www.w3.org/1999/xlink" width="500" zoomAndPan="magnify" viewBox="0 0 375 374.999991" height="500" preserveAspectRatio="xMidYMid meet" version="1.0"><defs><g/></defs><g fill="#000000" fill-opacity="1"><g transform="translate(54.040943, 203.624987)"><g><path d="M 13.796875 0.453125 C 11.585938 0.453125 9.625 0.175781 7.90625 -0.375 C 6.195312 -0.925781 4.585938 -1.859375 3.078125 -3.171875 C 2.253906 -3.910156 1.84375 -4.722656 1.84375 -5.609375 C 1.84375 -6.316406 2.101562 -6.9375 2.625 -7.46875 C 3.144531 -8.007812 3.773438 -8.28125 4.515625 -8.28125 C 5.085938 -8.28125 5.609375 -8.097656 6.078125 -7.734375 C 7.296875 -6.710938 8.488281 -5.972656 9.65625 -5.515625 C 10.820312 -5.054688 12.203125 -4.828125 13.796875 -4.828125 C 15.515625 -4.828125 16.992188 -5.207031 18.234375 -5.96875 C 19.484375 -6.738281 20.109375 -7.691406 20.109375 -8.828125 C 20.109375 -10.210938 19.492188 -11.296875 18.265625 -12.078125 C 17.035156 -12.859375 15.085938 -13.445312 12.421875 -13.84375 C 5.703125 -14.820312 2.34375 -17.953125 2.34375 -23.234375 C 2.34375 -25.160156 2.847656 -26.835938 3.859375 -28.265625 C 4.867188 -29.691406 6.25 -30.78125 8 -31.53125 C 9.75 -32.28125 11.695312 -32.65625 13.84375 -32.65625 C 15.78125 -32.65625 17.597656 -32.363281 19.296875 -31.78125 C 20.992188 -31.195312 22.410156 -30.429688 23.546875 -29.484375 C 24.441406 -28.773438 24.890625 -27.960938 24.890625 -27.046875 C 24.890625 -26.335938 24.628906 -25.710938 24.109375 -25.171875 C 23.585938 -24.640625 22.972656 -24.375 22.265625 -24.375 C 21.804688 -24.375 21.390625 -24.515625 21.015625 -24.796875 C 20.222656 -25.441406 19.113281 -26.03125 17.6875 -26.5625 C 16.257812 -27.101562 14.976562 -27.375 13.84375 -27.375 C 11.914062 -27.375 10.421875 -27.007812 9.359375 -26.28125 C 8.304688 -25.5625 7.78125 -24.617188 7.78125 -23.453125 C 7.78125 -22.140625 8.320312 -21.144531 9.40625 -20.46875 C 10.5 -19.789062 12.207031 -19.238281 14.53125 -18.8125 C 17.164062 -18.351562 19.273438 -17.765625 20.859375 -17.046875 C 22.441406 -16.328125 23.628906 -15.34375 24.421875 -14.09375 C 25.222656 -12.851562 25.625 -11.207031 25.625 -9.15625 C 25.625 -7.21875 25.078125 -5.519531 23.984375 -4.0625 C 22.898438 -2.613281 21.453125 -1.5 19.640625 -0.71875 C 17.828125 0.0625 15.878906 0.453125 13.796875 0.453125 Z M 13.796875 0.453125 "/></g></g></g><g fill="#000000" fill-opacity="1"><g transform="translate(79.660636, 203.624987)"><g><path d="M 15.921875 -25.0625 C 18.953125 -25.0625 21.050781 -24.132812 22.21875 -22.28125 C 23.382812 -20.425781 23.96875 -17.859375 23.96875 -14.578125 L 23.96875 -2.8125 C 23.96875 -2.007812 23.707031 -1.335938 23.1875 -0.796875 C 22.664062 -0.265625 22.003906 0 21.203125 0 C 20.410156 0 19.753906 -0.265625 19.234375 -0.796875 C 18.710938 -1.335938 18.453125 -2.007812 18.453125 -2.8125 L 18.453125 -14.578125 C 18.453125 -16.265625 18.117188 -17.59375 17.453125 -18.5625 C 16.796875 -19.53125 15.640625 -20.015625 13.984375 -20.015625 C 12.265625 -20.015625 10.921875 -19.5 9.953125 -18.46875 C 8.992188 -17.4375 8.515625 -16.140625 8.515625 -14.578125 L 8.515625 -2.8125 C 8.515625 -2.007812 8.253906 -1.335938 7.734375 -0.796875 C 7.210938 -0.265625 6.550781 0 5.75 0 C 4.945312 0 4.285156 -0.265625 3.765625 -0.796875 C 3.242188 -1.335938 2.984375 -2.007812 2.984375 -2.8125 L 2.984375 -31.234375 C 2.984375 -32.035156 3.242188 -32.703125 3.765625 -33.234375 C 4.285156 -33.773438 4.945312 -34.046875 5.75 -34.046875 C 6.550781 -34.046875 7.210938 -33.773438 7.734375 -33.234375 C 8.253906 -32.703125 8.515625 -32.035156 8.515625 -31.234375 L 8.515625 -21.0625 C 9.335938 -22.164062 10.382812 -23.109375 11.65625 -23.890625 C 12.925781 -24.671875 14.347656 -25.0625 15.921875 -25.0625 Z M 15.921875 -25.0625 "/></g></g></g><g fill="#000000" fill-opacity="1"><g transform="translate(104.774373, 203.624987)"><g><path d="M 21.25 -24.609375 C 22.050781 -24.609375 22.710938 -24.335938 23.234375 -23.796875 C 23.753906 -23.265625 24.015625 -22.597656 24.015625 -21.796875 L 24.015625 -10.125 C 24.015625 -6.8125 23.097656 -4.21875 21.265625 -2.34375 C 19.441406 -0.476562 16.847656 0.453125 13.484375 0.453125 C 10.109375 0.453125 7.515625 -0.476562 5.703125 -2.34375 C 3.890625 -4.21875 2.984375 -6.8125 2.984375 -10.125 L 2.984375 -21.796875 C 2.984375 -22.597656 3.242188 -23.265625 3.765625 -23.796875 C 4.285156 -24.335938 4.945312 -24.609375 5.75 -24.609375 C 6.550781 -24.609375 7.210938 -24.335938 7.734375 -23.796875 C 8.253906 -23.265625 8.515625 -22.597656 8.515625 -21.796875 L 8.515625 -10.125 C 8.515625 -8.25 8.925781 -6.859375 9.75 -5.953125 C 10.582031 -5.046875 11.828125 -4.59375 13.484375 -4.59375 C 15.171875 -4.59375 16.425781 -5.046875 17.25 -5.953125 C 18.070312 -6.859375 18.484375 -8.25 18.484375 -10.125 L 18.484375 -21.796875 C 18.484375 -22.597656 18.742188 -23.265625 19.265625 -23.796875 C 19.796875 -24.335938 20.457031 -24.609375 21.25 -24.609375 Z M 21.25 -24.609375 "/></g></g></g><g fill="#000000" fill-opacity="1"><g transform="translate(129.934104, 203.624987)"><g><path d="M 14.859375 -5.203125 C 15.285156 -5.203125 15.675781 -4.992188 16.03125 -4.578125 C 16.382812 -4.160156 16.5625 -3.613281 16.5625 -2.9375 C 16.5625 -2.113281 16.109375 -1.414062 15.203125 -0.84375 C 14.296875 -0.28125 13.273438 0 12.140625 0 C 10.242188 0 8.640625 -0.40625 7.328125 -1.21875 C 6.023438 -2.03125 5.375 -3.753906 5.375 -6.390625 L 5.375 -19.09375 L 3.265625 -19.09375 C 2.523438 -19.09375 1.910156 -19.335938 1.421875 -19.828125 C 0.929688 -20.316406 0.6875 -20.929688 0.6875 -21.671875 C 0.6875 -22.367188 0.929688 -22.957031 1.421875 -23.4375 C 1.910156 -23.914062 2.523438 -24.15625 3.265625 -24.15625 L 5.375 -24.15625 L 5.375 -27.09375 C 5.375 -27.894531 5.640625 -28.5625 6.171875 -29.09375 C 6.710938 -29.632812 7.382812 -29.90625 8.1875 -29.90625 C 8.957031 -29.90625 9.601562 -29.632812 10.125 -29.09375 C 10.644531 -28.5625 10.90625 -27.894531 10.90625 -27.09375 L 10.90625 -24.15625 L 14.171875 -24.15625 C 14.898438 -24.15625 15.507812 -23.90625 16 -23.40625 C 16.5 -22.914062 16.75 -22.304688 16.75 -21.578125 C 16.75 -20.867188 16.5 -20.273438 16 -19.796875 C 15.507812 -19.328125 14.898438 -19.09375 14.171875 -19.09375 L 10.90625 -19.09375 L 10.90625 -6.625 C 10.90625 -5.976562 11.070312 -5.507812 11.40625 -5.21875 C 11.738281 -4.925781 12.195312 -4.78125 12.78125 -4.78125 C 13.03125 -4.78125 13.367188 -4.84375 13.796875 -4.96875 C 14.171875 -5.125 14.523438 -5.203125 14.859375 -5.203125 Z M 14.859375 -5.203125 "/></g></g></g><g fill="#000000" fill-opacity="1"><g transform="translate(146.906526, 203.624987)"><g><path d="M 14.859375 -5.203125 C 15.285156 -5.203125 15.675781 -4.992188 16.03125 -4.578125 C 16.382812 -4.160156 16.5625 -3.613281 16.5625 -2.9375 C 16.5625 -2.113281 16.109375 -1.414062 15.203125 -0.84375 C 14.296875 -0.28125 13.273438 0 12.140625 0 C 10.242188 0 8.640625 -0.40625 7.328125 -1.21875 C 6.023438 -2.03125 5.375 -3.753906 5.375 -6.390625 L 5.375 -19.09375 L 3.265625 -19.09375 C 2.523438 -19.09375 1.910156 -19.335938 1.421875 -19.828125 C 0.929688 -20.316406 0.6875 -20.929688 0.6875 -21.671875 C 0.6875 -22.367188 0.929688 -22.957031 1.421875 -23.4375 C 1.910156 -23.914062 2.523438 -24.15625 3.265625 -24.15625 L 5.375 -24.15625 L 5.375 -27.09375 C 5.375 -27.894531 5.640625 -28.5625 6.171875 -29.09375 C 6.710938 -29.632812 7.382812 -29.90625 8.1875 -29.90625 C 8.957031 -29.90625 9.601562 -29.632812 10.125 -29.09375 C 10.644531 -28.5625 10.90625 -27.894531 10.90625 -27.09375 L 10.90625 -24.15625 L 14.171875 -24.15625 C 14.898438 -24.15625 15.507812 -23.90625 16 -23.40625 C 16.5 -22.914062 16.75 -22.304688 16.75 -21.578125 C 16.75 -20.867188 16.5 -20.273438 16 -19.796875 C 15.507812 -19.328125 14.898438 -19.09375 14.171875 -19.09375 L 10.90625 -19.09375 L 10.90625 -6.625 C 10.90625 -5.976562 11.070312 -5.507812 11.40625 -5.21875 C 11.738281 -4.925781 12.195312 -4.78125 12.78125 -4.78125 C 13.03125 -4.78125 13.367188 -4.84375 13.796875 -4.96875 C 14.171875 -5.125 14.523438 -5.203125 14.859375 -5.203125 Z M 14.859375 -5.203125 "/></g></g></g><g fill="#000000" fill-opacity="1"><g transform="translate(163.878948, 203.624987)"><g><path d="M 25.0625 -12.875 C 25.039062 -12.144531 24.753906 -11.546875 24.203125 -11.078125 C 23.648438 -10.617188 23.003906 -10.390625 22.265625 -10.390625 L 7.078125 -10.390625 C 7.453125 -8.585938 8.296875 -7.171875 9.609375 -6.140625 C 10.929688 -5.109375 12.421875 -4.59375 14.078125 -4.59375 C 15.335938 -4.59375 16.316406 -4.707031 17.015625 -4.9375 C 17.722656 -5.175781 18.28125 -5.425781 18.6875 -5.6875 C 19.101562 -5.945312 19.390625 -6.117188 19.546875 -6.203125 C 20.097656 -6.484375 20.617188 -6.625 21.109375 -6.625 C 21.753906 -6.625 22.304688 -6.394531 22.765625 -5.9375 C 23.222656 -5.476562 23.453125 -4.941406 23.453125 -4.328125 C 23.453125 -3.492188 23.023438 -2.738281 22.171875 -2.0625 C 21.316406 -1.363281 20.164062 -0.769531 18.71875 -0.28125 C 17.28125 0.207031 15.828125 0.453125 14.359375 0.453125 C 11.773438 0.453125 9.523438 -0.0820312 7.609375 -1.15625 C 5.691406 -2.226562 4.210938 -3.707031 3.171875 -5.59375 C 2.128906 -7.476562 1.609375 -9.597656 1.609375 -11.953125 C 1.609375 -14.597656 2.160156 -16.914062 3.265625 -18.90625 C 4.367188 -20.894531 5.820312 -22.414062 7.625 -23.46875 C 9.4375 -24.53125 11.375 -25.0625 13.4375 -25.0625 C 15.457031 -25.0625 17.363281 -24.507812 19.15625 -23.40625 C 20.945312 -22.3125 22.378906 -20.828125 23.453125 -18.953125 C 24.523438 -17.078125 25.0625 -15.050781 25.0625 -12.875 Z M 13.4375 -20.015625 C 9.875 -20.015625 7.769531 -18.34375 7.125 -15 L 19.1875 -15 L 19.1875 -15.3125 C 19.0625 -16.601562 18.429688 -17.707031 17.296875 -18.625 C 16.160156 -19.550781 14.875 -20.015625 13.4375 -20.015625 Z M 13.4375 -20.015625 "/></g></g></g><g fill="#000000" fill-opacity="1"><g transform="translate(188.716712, 203.624987)"><g><path d="M 15.78125 -25.0625 C 16.695312 -25.0625 17.46875 -24.800781 18.09375 -24.28125 C 18.726562 -23.757812 19.046875 -23.148438 19.046875 -22.453125 C 19.046875 -21.492188 18.800781 -20.773438 18.3125 -20.296875 C 17.820312 -19.828125 17.238281 -19.59375 16.5625 -19.59375 C 16.101562 -19.59375 15.582031 -19.703125 15 -19.921875 C 14.90625 -19.953125 14.695312 -20.007812 14.375 -20.09375 C 14.050781 -20.1875 13.707031 -20.234375 13.34375 -20.234375 C 12.539062 -20.234375 11.769531 -19.988281 11.03125 -19.5 C 10.300781 -19.007812 9.695312 -18.265625 9.21875 -17.265625 C 8.75 -16.273438 8.515625 -15.085938 8.515625 -13.703125 L 8.515625 -2.8125 C 8.515625 -2.007812 8.253906 -1.335938 7.734375 -0.796875 C 7.210938 -0.265625 6.550781 0 5.75 0 C 4.945312 0 4.285156 -0.265625 3.765625 -0.796875 C 3.242188 -1.335938 2.984375 -2.007812 2.984375 -2.8125 L 2.984375 -21.796875 C 2.984375 -22.597656 3.242188 -23.265625 3.765625 -23.796875 C 4.285156 -24.335938 4.945312 -24.609375 5.75 -24.609375 C 6.550781 -24.609375 7.210938 -24.335938 7.734375 -23.796875 C 8.253906 -23.265625 8.515625 -22.597656 8.515625 -21.796875 L 8.515625 -21.203125 C 9.210938 -22.460938 10.222656 -23.421875 11.546875 -24.078125 C 12.867188 -24.734375 14.28125 -25.0625 15.78125 -25.0625 Z M 15.78125 -25.0625 "/></g></g></g><g fill="#000000" fill-opacity="1"><g transform="translate(206.839036, 203.624987)"><g><path d="M 13.796875 0.453125 C 11.585938 0.453125 9.625 0.175781 7.90625 -0.375 C 6.195312 -0.925781 4.585938 -1.859375 3.078125 -3.171875 C 2.253906 -3.910156 1.84375 -4.722656 1.84375 -5.609375 C 1.84375 -6.316406 2.101562 -6.9375 2.625 -7.46875 C 3.144531 -8.007812 3.773438 -8.28125 4.515625 -8.28125 C 5.085938 -8.28125 5.609375 -8.097656 6.078125 -7.734375 C 7.296875 -6.710938 8.488281 -5.972656 9.65625 -5.515625 C 10.820312 -5.054688 12.203125 -4.828125 13.796875 -4.828125 C 15.515625 -4.828125 16.992188 -5.207031 18.234375 -5.96875 C 19.484375 -6.738281 20.109375 -7.691406 20.109375 -8.828125 C 20.109375 -10.210938 19.492188 -11.296875 18.265625 -12.078125 C 17.035156 -12.859375 15.085938 -13.445312 12.421875 -13.84375 C 5.703125 -14.820312 2.34375 -17.953125 2.34375 -23.234375 C 2.34375 -25.160156 2.847656 -26.835938 3.859375 -28.265625 C 4.867188 -29.691406 6.25 -30.78125 8 -31.53125 C 9.75 -32.28125 11.695312 -32.65625 13.84375 -32.65625 C 15.78125 -32.65625 17.597656 -32.363281 19.296875 -31.78125 C 20.992188 -31.195312 22.410156 -30.429688 23.546875 -29.484375 C 24.441406 -28.773438 24.890625 -27.960938 24.890625 -27.046875 C 24.890625 -26.335938 24.628906 -25.710938 24.109375 -25.171875 C 23.585938 -24.640625 22.972656 -24.375 22.265625 -24.375 C 21.804688 -24.375 21.390625 -24.515625 21.015625 -24.796875 C 20.222656 -25.441406 19.113281 -26.03125 17.6875 -26.5625 C 16.257812 -27.101562 14.976562 -27.375 13.84375 -27.375 C 11.914062 -27.375 10.421875 -27.007812 9.359375 -26.28125 C 8.304688 -25.5625 7.78125 -24.617188 7.78125 -23.453125 C 7.78125 -22.140625 8.320312 -21.144531 9.40625 -20.46875 C 10.5 -19.789062 12.207031 -19.238281 14.53125 -18.8125 C 17.164062 -18.351562 19.273438 -17.765625 20.859375 -17.046875 C 22.441406 -16.328125 23.628906 -15.34375 24.421875 -14.09375 C 25.222656 -12.851562 25.625 -11.207031 25.625 -9.15625 C 25.625 -7.21875 25.078125 -5.519531 23.984375 -4.0625 C 22.898438 -2.613281 21.453125 -1.5 19.640625 -0.71875 C 17.828125 0.0625 15.878906 0.453125 13.796875 0.453125 Z M 13.796875 0.453125 "/></g></g></g><g fill="#000000" fill-opacity="1"><g transform="translate(232.458729, 203.624987)"><g><path d="M 14.859375 -5.203125 C 15.285156 -5.203125 15.675781 -4.992188 16.03125 -4.578125 C 16.382812 -4.160156 16.5625 -3.613281 16.5625 -2.9375 C 16.5625 -2.113281 16.109375 -1.414062 15.203125 -0.84375 C 14.296875 -0.28125 13.273438 0 12.140625 0 C 10.242188 0 8.640625 -0.40625 7.328125 -1.21875 C 6.023438 -2.03125 5.375 -3.753906 5.375 -6.390625 L 5.375 -19.09375 L 3.265625 -19.09375 C 2.523438 -19.09375 1.910156 -19.335938 1.421875 -19.828125 C 0.929688 -20.316406 0.6875 -20.929688 0.6875 -21.671875 C 0.6875 -22.367188 0.929688 -22.957031 1.421875 -23.4375 C 1.910156 -23.914062 2.523438 -24.15625 3.265625 -24.15625 L 5.375 -24.15625 L 5.375 -27.09375 C 5.375 -27.894531 5.640625 -28.5625 6.171875 -29.09375 C 6.710938 -29.632812 7.382812 -29.90625 8.1875 -29.90625 C 8.957031 -29.90625 9.601562 -29.632812 10.125 -29.09375 C 10.644531 -28.5625 10.90625 -27.894531 10.90625 -27.09375 L 10.90625 -24.15625 L 14.171875 -24.15625 C 14.898438 -24.15625 15.507812 -23.90625 16 -23.40625 C 16.5 -22.914062 16.75 -22.304688 16.75 -21.578125 C 16.75 -20.867188 16.5 -20.273438 16 -19.796875 C 15.507812 -19.328125 14.898438 -19.09375 14.171875 -19.09375 L 10.90625 -19.09375 L 10.90625 -6.625 C 10.90625 -5.976562 11.070312 -5.507812 11.40625 -5.21875 C 11.738281 -4.925781 12.195312 -4.78125 12.78125 -4.78125 C 13.03125 -4.78125 13.367188 -4.84375 13.796875 -4.96875 C 14.171875 -5.125 14.523438 -5.203125 14.859375 -5.203125 Z M 14.859375 -5.203125 "/></g></g></g><g fill="#000000" fill-opacity="1"><g transform="translate(249.431151, 203.624987)"><g><path d="M 26.640625 -12.28125 C 26.640625 -9.832031 26.085938 -7.632812 24.984375 -5.6875 C 23.878906 -3.738281 22.367188 -2.226562 20.453125 -1.15625 C 18.535156 -0.0820312 16.425781 0.453125 14.125 0.453125 C 11.789062 0.453125 9.671875 -0.0820312 7.765625 -1.15625 C 5.867188 -2.226562 4.367188 -3.738281 3.265625 -5.6875 C 2.160156 -7.632812 1.609375 -9.832031 1.609375 -12.28125 C 1.609375 -14.738281 2.160156 -16.9375 3.265625 -18.875 C 4.367188 -20.820312 5.867188 -22.335938 7.765625 -23.421875 C 9.671875 -24.515625 11.789062 -25.0625 14.125 -25.0625 C 16.425781 -25.0625 18.535156 -24.515625 20.453125 -23.421875 C 22.367188 -22.335938 23.878906 -20.820312 24.984375 -18.875 C 26.085938 -16.9375 26.640625 -14.738281 26.640625 -12.28125 Z M 21.109375 -12.28125 C 21.109375 -13.78125 20.796875 -15.117188 20.171875 -16.296875 C 19.546875 -17.484375 18.703125 -18.398438 17.640625 -19.046875 C 16.578125 -19.691406 15.40625 -20.015625 14.125 -20.015625 C 12.832031 -20.015625 11.65625 -19.691406 10.59375 -19.046875 C 9.539062 -18.398438 8.695312 -17.484375 8.0625 -16.296875 C 7.4375 -15.117188 7.125 -13.78125 7.125 -12.28125 C 7.125 -10.78125 7.4375 -9.445312 8.0625 -8.28125 C 8.695312 -7.113281 9.539062 -6.207031 10.59375 -5.5625 C 11.65625 -4.914062 12.832031 -4.59375 14.125 -4.59375 C 15.40625 -4.59375 16.578125 -4.914062 17.640625 -5.5625 C 18.703125 -6.207031 19.546875 -7.113281 20.171875 -8.28125 C 20.796875 -9.445312 21.109375 -10.78125 21.109375 -12.28125 Z M 21.109375 -12.28125 "/></g></g></g><g fill="#000000" fill-opacity="1"><g transform="translate(275.832784, 203.624987)"><g><path d="M 15.78125 -25.0625 C 16.695312 -25.0625 17.46875 -24.800781 18.09375 -24.28125 C 18.726562 -23.757812 19.046875 -23.148438 19.046875 -22.453125 C 19.046875 -21.492188 18.800781 -20.773438 18.3125 -20.296875 C 17.820312 -19.828125 17.238281 -19.59375 16.5625 -19.59375 C 16.101562 -19.59375 15.582031 -19.703125 15 -19.921875 C 14.90625 -19.953125 14.695312 -20.007812 14.375 -20.09375 C 14.050781 -20.1875 13.707031 -20.234375 13.34375 -20.234375 C 12.539062 -20.234375 11.769531 -19.988281 11.03125 -19.5 C 10.300781 -19.007812 9.695312 -18.265625 9.21875 -17.265625 C 8.75 -16.273438 8.515625 -15.085938 8.515625 -13.703125 L 8.515625 -2.8125 C 8.515625 -2.007812 8.253906 -1.335938 7.734375 -0.796875 C 7.210938 -0.265625 6.550781 0 5.75 0 C 4.945312 0 4.285156 -0.265625 3.765625 -0.796875 C 3.242188 -1.335938 2.984375 -2.007812 2.984375 -2.8125 L 2.984375 -21.796875 C 2.984375 -22.597656 3.242188 -23.265625 3.765625 -23.796875 C 4.285156 -24.335938 4.945312 -24.609375 5.75 -24.609375 C 6.550781 -24.609375 7.210938 -24.335938 7.734375 -23.796875 C 8.253906 -23.265625 8.515625 -22.597656 8.515625 -21.796875 L 8.515625 -21.203125 C 9.210938 -22.460938 10.222656 -23.421875 11.546875 -24.078125 C 12.867188 -24.734375 14.28125 -25.0625 15.78125 -25.0625 Z M 15.78125 -25.0625 "/></g></g></g><g fill="#000000" fill-opacity="1"><g transform="translate(293.955097, 203.624987)"><g><path d="M 21.25 -24.609375 C 22.050781 -24.609375 22.710938 -24.335938 23.234375 -23.796875 C 23.753906 -23.265625 24.015625 -22.597656 24.015625 -21.796875 L 24.015625 -2.25 C 24.015625 1.726562 22.941406 4.628906 20.796875 6.453125 C 18.648438 8.285156 15.78125 9.203125 12.1875 9.203125 C 11.144531 9.203125 10.078125 9.113281 8.984375 8.9375 C 7.898438 8.769531 7.019531 8.550781 6.34375 8.28125 C 4.84375 7.632812 4.09375 6.742188 4.09375 5.609375 C 4.09375 5.398438 4.140625 5.15625 4.234375 4.875 C 4.421875 4.195312 4.734375 3.679688 5.171875 3.328125 C 5.617188 2.984375 6.101562 2.8125 6.625 2.8125 C 6.925781 2.8125 7.21875 2.851562 7.5 2.9375 C 7.707031 3.03125 8.082031 3.179688 8.625 3.390625 C 9.164062 3.609375 9.734375 3.785156 10.328125 3.921875 C 10.921875 4.066406 11.539062 4.140625 12.1875 4.140625 C 14.363281 4.140625 15.960938 3.671875 16.984375 2.734375 C 18.015625 1.796875 18.53125 0.195312 18.53125 -2.0625 L 18.53125 -2.53125 C 16.9375 -0.539062 14.457031 0.453125 11.09375 0.453125 C 9.488281 0.453125 8.070312 0.078125 6.84375 -0.671875 C 5.625 -1.421875 4.675781 -2.460938 4 -3.796875 C 3.320312 -5.128906 2.984375 -6.65625 2.984375 -8.375 L 2.984375 -21.796875 C 2.984375 -22.597656 3.242188 -23.265625 3.765625 -23.796875 C 4.285156 -24.335938 4.945312 -24.609375 5.75 -24.609375 C 6.550781 -24.609375 7.210938 -24.335938 7.734375 -23.796875 C 8.253906 -23.265625 8.515625 -22.597656 8.515625 -21.796875 L 8.515625 -10.03125 C 8.515625 -8.09375 8.9375 -6.703125 9.78125 -5.859375 C 10.625 -5.015625 11.859375 -4.59375 13.484375 -4.59375 C 15.078125 -4.59375 16.304688 -5.0625 17.171875 -6 C 18.046875 -6.9375 18.484375 -8.28125 18.484375 -10.03125 L 18.484375 -21.796875 C 18.484375 -22.597656 18.742188 -23.265625 19.265625 -23.796875 C 19.796875 -24.335938 20.457031 -24.609375 21.25 -24.609375 Z M 21.25 -24.609375 "/></g></g></g></svg>